<svg width="141" height="62" viewBox="0 0 141 62" xmlns="http://www.w3.org/2000/svg"><g fill="none" fill-rule="evenodd"><path d="M115.9 24.7h7.8v2.5h-4.5v2.7h4.2v2.4h-4.2v2.8h4.8v2.5h-8.1V24.7zm-21.1 0h8.9v2.5h-2.8v10.4h-3.3V27.2h-2.8v-2.5zM20.1 37.8c-1.2 0-2.5-.2-3.5-.6l.2-2.7c1.1.5 2.1.7 3 .7 1 0 1.7-.4 1.7-1.2 0-.8-.5-1.2-2.1-1.9-2.1-1-3-1.9-3-3.8 0-2.5 2-3.9 4.7-3.9 1.2 0 2.2.2 3.1.4l-.2 2.5c-1-.4-1.7-.6-2.5-.6-1 0-1.7.4-1.7 1.1 0 .7.4 1 2 1.7 2.1 1 3.2 1.9 3.2 3.9 0 2.9-1.9 4.4-4.9 4.4zm25.5-.2h-7.3V24.7h3.4v10.4h4v2.5h-.1z"/><path fill="#FFF" fill-rule="nonzero" d="M56.6 54.7l-9-5.2H5.4V13h42.2l9-5.2 1.6-1V.9l-12 6.9H.2v46.9h46l12 6.9v-6zM135 7.8H93.4L81.6 1v5.9l1.4.9 9 5.2h43v36.5H92l-9 5.2-1.4.8v6l11.8-6.8h46.8V7.8z"/><path d="M21.8 29.8c-1.6-.7-2-1.1-2-1.7 0-.7.7-1.1 1.7-1.1.8 0 1.6.1 2.5.6l.2-2.5c-.8-.3-1.9-.4-3.1-.4-2.7 0-4.7 1.4-4.7 3.9 0 1.9.9 2.8 3 3.8 1.6.7 2.1 1.1 2.1 1.9 0 .8-.6 1.2-1.7 1.2-.9 0-1.9-.2-3-.7l-.2 2.7c.9.4 2.3.6 3.5.6 3 0 4.9-1.5 4.9-4.2 0-2.2-1-3.2-3.2-4.1zm19.8-5.1h-3.4v12.9h7.4v-2.5h-4zm56 12.9h3.3V27.2l2.8.1v-2.6h-8.9v2.6l2.8-.1zm26.4-2.5h-4.8v-2.8h4.2v-2.4h-4.2v-2.7h4.4v-2.5h-7.7v12.9h8.1zm-65.8 7.6v-23zm3.3 1.9v-9.5l8.3-4.8 8.3 4.8v9.5l3.3-1.9v-23L69.8 13l-11.6 6.7v23.1l3.3 1.8zm16.7-13.3l-5-2.9 5-2.9v5.8zm-16.7-9.7l8.3-4.8 8.3 4.8-8.3 4.8-8.3-4.8zm0 3.9l5 2.9-5 2.9v-5.8z" fill="#FFF" fill-rule="nonzero"/></g></svg>