<?xml version="1.0" encoding="utf-8"?>
<!-- Generated by IcoMoon.io -->
<!DOCTYPE svg PUBLIC "-//W3C//DTD SVG 1.1//EN" "http://www.w3.org/Graphics/SVG/1.1/DTD/svg11.dtd">
<svg version="1.1" xmlns="http://www.w3.org/2000/svg" xmlns:xlink="http://www.w3.org/1999/xlink" width="20" height="20" viewBox="0 0 20 20" class="icon">
<path fill="#444444" d="M15.89 14.696l-4.734-4.734 4.717-4.717c0.4-0.4 0.37-1.085-0.030-1.485s-1.085-0.43-1.485-0.030l-4.717 4.717-4.671-4.671c-0.4-0.4-1.085-0.37-1.485 0.030s-0.43 1.085-0.030 1.485l4.671 4.671-4.688 4.688c-0.4 0.4-0.37 1.085 0.030 1.485s1.085 0.43 1.485 0.030l4.688-4.687 4.734 4.734c0.4 0.4 1.085 0.37 1.485-0.030s0.43-1.085 0.030-1.485z"/>
</svg>
