<?xml version="1.0" encoding="utf-8"?>
<!-- Generated by IcoMoon.io -->
<!DOCTYPE svg PUBLIC "-//W3C//DTD SVG 1.1//EN" "http://www.w3.org/Graphics/SVG/1.1/DTD/svg11.dtd">
<svg version="1.1" xmlns="http://www.w3.org/2000/svg" xmlns:xlink="http://www.w3.org/1999/xlink" width="27" height="20" viewBox="0 0 27 20" class="icon">
<path fill="#444444" d="M19.16 8.465q-0.781-0.352-1.621-0.332-0.605 0-0.928 0.225t-0.322 0.508 0.283 0.508 0.947 0.557q1.855 0.84 1.836 2.285 0 1.328-1.035 2.119t-2.773 0.791q-1.445-0.020-2.441-0.449l0.293-1.914 0.273 0.156q1.113 0.449 2.070 0.449 0.527 0 0.918-0.225t0.41-0.635q0-0.273-0.254-0.498t-0.918-0.557q-0.371-0.195-0.654-0.371t-0.596-0.459-0.488-0.664-0.176-0.811q0.020-1.23 1.064-2.002t2.666-0.771q1.035 0 1.953 0.332l-0.273 1.855zM10.020 6.531l-3.457 8.477h-2.305l-1.797-6.758q0.938 0.371 1.709 1.133t1.104 1.66q-1.211-3.34-5.273-4.355l0.020-0.156h3.535q0.82 0 0.996 0.684l0.762 3.906 0.254 1.172 2.129-5.762h2.324zM13.105 6.531l-1.367 8.477h-2.188l1.367-8.477h2.188zM27.051 15.008h-2.051q-0.156-0.996-0.234-1.27l-2.813-0.020-0.449 1.289h-2.324l3.262-7.793q0.293-0.684 1.152-0.684h1.68zM23.77 8.797q-0.059 0.156-0.137 0.361t-0.127 0.342-0.029 0.117q-0.703 1.875-0.879 2.383h1.777l-0.469-2.461z"/>
</svg>
