<?xml version="1.0" encoding="utf-8"?>
<!-- Generated by IcoMoon.io -->
<!DOCTYPE svg PUBLIC "-//W3C//DTD SVG 1.1//EN" "http://www.w3.org/Graphics/SVG/1.1/DTD/svg11.dtd">
<svg version="1.1" xmlns="http://www.w3.org/2000/svg" xmlns:xlink="http://www.w3.org/1999/xlink" width="20" height="20" viewbox="0 0 20 20" class="icon">
<path fill="#444444" d="M10.491 15.815q0-0.234-0.050-0.452t-0.106-0.402-0.195-0.385-0.234-0.34-0.296-0.329-0.307-0.285-0.357-0.285-0.346-0.257-0.368-0.257-0.34-0.234q-0.19-0.022-0.558-0.022-0.603 0-1.183 0.078t-1.205 0.279-1.094 0.513-0.77 0.837-0.301 1.194q0 0.759 0.396 1.356t1.038 0.938 1.345 0.508 1.417 0.167q0.658 0 1.256-0.14t1.122-0.435 0.831-0.82 0.307-1.228zM9.152 6.194q0-0.67-0.184-1.423t-0.525-1.456-0.938-1.161-1.334-0.458q-1.038 0-1.607 0.77t-0.569 1.842q0 0.525 0.128 1.105t0.396 1.161 0.625 1.044 0.871 0.753 1.083 0.29q1.083 0 1.568-0.675t0.486-1.791zM7.69 0.893h4.877l-1.507 0.882h-1.507q0.792 0.502 1.228 1.406t0.435 1.886q0 0.826-0.257 1.468t-0.625 1.032-0.737 0.72-0.625 0.681-0.257 0.753q0 0.29 0.184 0.569t0.48 0.536 0.653 0.536 0.714 0.619 0.653 0.737 0.48 0.949 0.184 1.189q0 1.786-1.563 3.147-1.696 1.462-4.688 1.462-0.658 0-1.334-0.112t-1.362-0.374-1.211-0.647-0.859-0.993-0.335-1.356q0-0.681 0.413-1.507 0.357-0.714 1.071-1.233t1.618-0.792 1.73-0.402 1.674-0.151q-0.714-0.926-0.714-1.663 0-0.134 0.022-0.262t0.056-0.218 0.089-0.24 0.078-0.24q-0.446 0.056-0.781 0.056-1.663 0-2.852-1.094t-1.189-2.746q0-1.563 1.060-2.796t2.612-1.579q1.049-0.223 2.087-0.223zM19.286 3.75v1.429h-2.857v2.857h-1.429v-2.857h-2.857v-1.429h2.857v-2.857h1.429v2.857h2.857z"/>
</svg>
