<?xml version="1.0" encoding="utf-8"?>
<!-- Generated by IcoMoon.io -->
<!DOCTYPE svg PUBLIC "-//W3C//DTD SVG 1.1//EN" "http://www.w3.org/Graphics/SVG/1.1/DTD/svg11.dtd">
<svg version="1.1" xmlns="http://www.w3.org/2000/svg" xmlns:xlink="http://www.w3.org/1999/xlink" width="22" height="20" viewBox="0 0 22 20" class="icon">
<path fill="#444444" d="M2.090 5.281q-0.41 0.039-0.996 0.391-0.508 0.313-0.801 0.84t-0.273 1.133q0.020 0 0.020-0.039h7.188q0.684 0.059 1.309 0.254 0.684 0.195 1.201 0.82t0.674 1.328q0.020-0.352 0.039-0.752t0.039-0.889 0.039-0.762h4.16q-0.059 0.391-0.098 0.879t-0.078 1.006-0.078 0.889q0.723-0.84 2.129-2.559 0.039-0.039 0.117-0.137t0.117-0.117h5.020q0.020-0.625-0.293-1.162t-0.859-0.83q-0.313-0.195-0.771-0.254t-0.869-0.029-0.879-0.010h-16.055zM21.875 7.645l0.020 0.039 0.020-0.039h-0.039zM21.816 7.664h-0.020q-0.254 0.195-0.518 0.449t-0.439 0.42-0.488 0.498-0.41 0.43-0.479 0.518-0.42 0.459l-0.039 0.039q0.156 0.195 0.449 0.576t0.459 0.615 0.439 0.576 0.488 0.605 0.469 0.566 0.508 0.557v-6.309zM4.004 11.609q0.195-0.020 0.713 0.010t0.85-0.020 0.586-0.244q0.43-0.371 0.41-0.742-0.078-0.273-0.273-0.439t-0.488-0.215-0.547-0.059-0.605 0-0.508 0.010zM14.395 10.691q-0.117 1.582-0.176 3.398-2.773-0.020-4.102 0 0.039-0.332 0.195-2.734-0.332 0.801-0.547 1.113-0.84 1.348-2.715 1.621h-7.031q0 0.469 0.156 0.879 0.234 0.566 0.762 0.967t1.113 0.42h17.422q0.605 0 1.016-0.215 0.605-0.254 0.986-0.85t0.342-1.24h-4.971t-0.098-0.020-0.107-0.068-0.059-0.127z"/>
</svg>
