<?xml version="1.0" encoding="utf-8"?>
<!-- Generated by IcoMoon.io -->
<!DOCTYPE svg PUBLIC "-//W3C//DTD SVG 1.1//EN" "http://www.w3.org/Graphics/SVG/1.1/DTD/svg11.dtd">
<svg version="1.1" xmlns="http://www.w3.org/2000/svg" xmlns:xlink="http://www.w3.org/1999/xlink" width="20" height="20" viewBox="0 0 20 20" class="icon">
<path fill="#444444" d="M18.64 17.020l-5.31-5.31c0.81-1.080 1.26-2.43 1.26-3.87-0.090-3.78-3.15-6.84-6.84-6.84s-6.75 3.060-6.75 6.75c0 3.69 3.060 6.75 6.75 6.75 1.44 0 2.79-0.45 3.87-1.26l5.31 5.31c0.45 0.45 1.26 0.54 1.71 0.090 0.45-0.36 0.45-1.17 0-1.62zM3.25 7.75c0-2.52 1.98-4.5 4.5-4.5s4.5 1.98 4.5 4.5-1.98 4.5-4.5 4.5c-2.52 0-4.5-1.98-4.5-4.5z"/>
</svg>
