<?xml version="1.0" encoding="utf-8"?>
<!-- Generated by IcoMoon.io -->
<!DOCTYPE svg PUBLIC "-//W3C//DTD SVG 1.1//EN" "http://www.w3.org/Graphics/SVG/1.1/DTD/svg11.dtd">
<svg version="1.1" xmlns="http://www.w3.org/2000/svg" xmlns:xlink="http://www.w3.org/1999/xlink" width="17" height="20" viewBox="0 0 17 20" class="icon">
<path fill="#444444" d="M10.156 3.875q1.895 0 3.525 0.859t2.646 2.471 1.016 3.584q0 1.836-1.006 3.418t-2.666 2.49-3.516 0.908h-3.242q-1.855 0-3.457-0.908t-2.529-2.49-0.928-3.418q0-1.992 0.938-3.584t2.51-2.461 3.467-0.869h3.242zM6.934 17.020q1.719 0 3.164-0.84t2.285-2.285 0.84-3.164q0-1.699-0.84-3.145t-2.285-2.285-3.164-0.84q-1.699 0-3.145 0.84t-2.285 2.285-0.84 3.145q0 1.719 0.84 3.164t2.285 2.285 3.145 0.84zM5.508 14.441q-1.133-0.43-1.836-1.445t-0.723-2.266q0.020-1.25 0.732-2.275t1.826-1.436v7.422zM8.379 7.020q1.113 0.41 1.826 1.436t0.713 2.275-0.713 2.266-1.826 1.445v-7.422z"/>
</svg>
