<?xml version="1.0" encoding="utf-8"?>
<!-- Generated by IcoMoon.io -->
<!DOCTYPE svg PUBLIC "-//W3C//DTD SVG 1.1//EN" "http://www.w3.org/Graphics/SVG/1.1/DTD/svg11.dtd">
<svg version="1.1" xmlns="http://www.w3.org/2000/svg" xmlns:xlink="http://www.w3.org/1999/xlink" width="20" height="20" viewBox="0 0 20 20" class="icon">
<path fill="#444444" d="M4.373 8.639h1.889v6.398q0 1.158 0.259 1.904 0.289 0.686 0.899 1.219 0.594 0.548 1.569 0.899 0.929 0.32 2.117 0.32 1.036 0 1.935-0.229 0.777-0.152 2.026-0.746v-2.864q-1.264 0.868-2.62 0.868-0.67 0-1.341-0.35-0.396-0.259-0.594-0.716-0.152-0.503-0.152-2.026v-4.677h4.113v-2.864h-4.113v-4.585h-2.468q-0.122 1.295-0.594 2.3-0.472 0.975-1.188 1.554-0.746 0.701-1.737 1.005v2.59z"/>
</svg>
