<?xml version="1.0" encoding="utf-8"?>
<!-- Generated by IcoMoon.io -->
<!DOCTYPE svg PUBLIC "-//W3C//DTD SVG 1.1//EN" "http://www.w3.org/Graphics/SVG/1.1/DTD/svg11.dtd">
<svg class="icon" version="1.1" xmlns="http://www.w3.org/2000/svg" xmlns:xlink="http://www.w3.org/1999/xlink" width="20" height="20" viewBox="0 0 20 20">
<path fill="#444444" d="M18.936 5.564c-0.144-0.175-0.35-0.207-0.55-0.207-0.001 0-0.002 0-0.003 0l-11.609-1.071c-0.272 0-0.417 0.089-0.491 0.18-0.079 0.096-0.16 0.263-0.094 0.585l2.016 5.705c0.163 0.407 0.642 0.673 1.068 0.673h8.401c0.433 0 0.854-0.285 0.941-0.725l0.484-4.571c0.045-0.221-0.015-0.388-0.163-0.567z"/>
<path fill="#444444" d="M17.107 12.5h-9.448l-2.679-8.383c0 0-0.274-0.801-0.362-1.059-0.138-0.401-0.292-0.559-0.695-0.559-0.398 0-2.999 0-2.999 0-0.411 0-0.748 0.303-0.748 0.714s0.337 0.714 0.748 0.714h2.413l3.002 9.48c0.126 0.38 0.295 0.52 0.942 0.52s9.825 0 9.825 0c0.411 0 0.748-0.303 0.748-0.714s-0.336-0.714-0.748-0.714z"/>
<path fill="#444444" d="M10.424 16.23c0 0.827-0.671 1.498-1.498 1.498s-1.498-0.671-1.498-1.498c0-0.827 0.671-1.498 1.498-1.498s1.498 0.671 1.498 1.498z"/>
<path fill="#444444" d="M16.853 16.23c0 0.827-0.671 1.498-1.498 1.498s-1.498-0.671-1.498-1.498c0-0.827 0.671-1.498 1.498-1.498s1.498 0.671 1.498 1.498z"/>
</svg>
