<svg xmlns="http://www.w3.org/2000/svg" viewBox="0 0 50 50" width="50" height="50">
    <path d="M46.775,35.079c-5.805-0.957-8.458-6.971-8.544-7.164c-0.013-0.037-0.039-0.097-0.056-0.132 c-0.175-0.354-0.352-0.851-0.204-1.2c0.256-0.604,1.462-0.987,2.185-1.216c0.254-0.081,0.495-0.158,0.684-0.232 c1.752-0.692,2.629-1.601,2.609-2.703c-0.017-0.887-0.696-1.697-1.694-2.05c-0.349-0.146-0.746-0.223-1.148-0.223 c-0.275,0-0.688,0.039-1.087,0.225c-0.667,0.313-1.256,0.481-1.672,0.5c-0.09-0.004-0.167-0.013-0.234-0.024l0.042-0.687 c0.196-3.112,0.44-6.984-0.611-9.342C33.947,3.889,27.376,3.35,25.432,3.35l-0.883,0.008c-1.936,0-8.493,0.539-11.587,7.477 c-1.052,2.358-0.808,6.229-0.612,9.339l0.008,0.12c0.012,0.191,0.024,0.38,0.035,0.566c-0.433,0.078-1.28-0.066-2.158-0.477 c-1.195-0.557-3.349,0.18-3.646,1.741c-0.131,0.692,0.029,2.003,2.575,3.01c0.19,0.076,0.431,0.153,0.687,0.233 c0.72,0.229,1.925,0.611,2.182,1.216c0.148,0.35-0.028,0.845-0.236,1.271c-0.109,0.255-2.746,6.266-8.564,7.224 c-0.742,0.12-1.27,0.777-1.228,1.534c0.012,0.201,0.06,0.401,0.143,0.596c0.528,1.236,2.445,2.087,6.025,2.672 c0.062,0.208,0.131,0.521,0.169,0.696c0.077,0.352,0.157,0.714,0.267,1.089c0.104,0.354,0.468,1.178,1.603,1.178 c0.342,0,0.719-0.074,1.119-0.152c0.596-0.117,1.338-0.262,2.291-0.262c0.53,0,1.078,0.046,1.628,0.138 c1.016,0.169,1.935,0.818,3.001,1.571c1.664,1.177,3.55,2.51,6.475,2.51c0.077,0,0.155-0.002,0.23-0.007 c0.108,0.005,0.216,0.007,0.326,0.007c2.924,0,4.812-1.334,6.479-2.512c1.017-0.72,1.978-1.399,2.995-1.569 c0.552-0.091,1.101-0.138,1.63-0.138c0.919,0,1.644,0.118,2.292,0.245c0.464,0.091,0.83,0.135,1.169,0.135 c0.759,0,1.339-0.435,1.55-1.159c0.11-0.37,0.19-0.724,0.268-1.082c0.029-0.135,0.103-0.47,0.169-0.692 c3.58-0.584,5.498-1.434,6.022-2.661c0.084-0.194,0.133-0.397,0.146-0.608C48.042,35.858,47.516,35.202,46.775,35.079z"/>
</svg>