<?xml version="1.0" encoding="UTF-8" standalone="no"?>
<svg width="112px" height="72px" viewBox="0 0 112 72" version="1.1" xmlns="http://www.w3.org/2000/svg" xmlns:xlink="http://www.w3.org/1999/xlink">
    <!-- Generator: Sketch 3.6.1 (26313) - http://www.bohemiancoding.com/sketch -->
    <title>Group</title>
    <desc>Created with Sketch.</desc>
    <defs></defs>
    <g id="Page-1" stroke="none" stroke-width="1" fill="none" fill-rule="evenodd">
        <g id="Group" fill="#000000">
            <path d="M112,67.667 C112,70.152 110.187,72 107.746,72 L4.588,72 C2.146,72 -1.33226763e-14,70.152 -1.33226763e-14,67.667 L-1.33226763e-14,4.667 C-1.33226763e-14,2.181 2.146,-1.24344979e-14 4.588,-1.24344979e-14 L107.746,-1.24344979e-14 C110.187,-1.24344979e-14 112,2.181 112,4.667 L112,67.667 Z M55.75,8.333 C40.286,8.333 27.75,20.869 27.75,36.333 C27.75,51.797 40.286,64.333 55.75,64.333 C71.214,64.333 83.75,51.797 83.75,36.333 C83.75,20.869 71.214,8.333 55.75,8.333 L55.75,8.333 Z M55.75,57.456 C44.084,57.456 34.627,47.999 34.627,36.333 C34.627,24.667 44.084,15.21 55.75,15.21 C67.416,15.21 76.873,24.667 76.873,36.333 C76.873,47.999 67.416,57.456 55.75,57.456 L55.75,57.456 Z M57.7,34.869 C60.434,37.603 60.434,42.035 57.7,44.768 C54.966,47.502 50.534,47.502 47.801,44.768 L44.265,48.304 C48.951,52.99 56.549,52.99 61.236,48.304 C65.923,43.618 65.922,36.02 61.236,31.333 L57.7,34.869 Z M53.8,38.283 C51.066,35.549 51.066,31.117 53.8,28.384 C56.534,25.65 60.966,25.65 63.699,28.384 L67.235,24.848 C62.549,20.162 54.951,20.162 50.264,24.848 C45.577,29.534 45.578,37.132 50.264,41.819 L53.8,38.283 Z" id="Combined-Shape"></path>
            <path d="M53.8,38.283 C51.066,35.549 51.066,31.117 53.8,28.384 C56.534,25.65 60.966,25.65 63.699,28.384 L67.235,24.848 C62.549,20.162 54.951,20.162 50.264,24.848 C45.577,29.534 45.578,37.132 50.264,41.819 L53.8,38.283 L53.8,38.283 Z" id="Shape" opacity="0.3"></path>
        </g>
    </g>
</svg>