<svg xmlns="http://www.w3.org/2000/svg" width="52" height="20" viewBox="0 0 52 20" class="icon"><path fill="#444" d="M22.598 14.617q-1.094.488-2.031.488-1.855 0-3.125-1.26t-1.27-3.115q0-1.797 1.299-3.076t3.135-1.279q1.035 0 1.992.508v1.914q-.957-.938-2.031-.938-1.152 0-1.943.84t-.791 2.031q0 1.27.791 2.07t2.021.801q1.055 0 1.953-.898v1.914zm-8.086-6.152q-.586-.664-1.328-.664-.527 0-.869.264t-.342.654q0 .332.264.557t.986.479q1.406.508 1.914 1.064t.508 1.553q0 1.211-.811 1.973t-2.08.762q-1.816 0-2.891-1.582l1.055-1.016q.586 1.113 1.777 1.113.547 0 .908-.332t.361-.84q0-.527-.488-.859-.273-.176-1.133-.469-1.133-.43-1.592-.938t-.459-1.387q0-1.016.752-1.699t1.846-.684q1.387 0 2.461.957zm13.164-2.051q1.875 0 3.154 1.26t1.279 3.076-1.289 3.086-3.145 1.27q-1.914 0-3.193-1.25t-1.279-3.145q0-1.797 1.309-3.047t3.164-1.25zm-25.293.137q1.973 0 3.232 1.172t1.26 3.008q0 .918-.391 1.768t-1.113 1.455q-1.211.977-2.988.977H0V6.552h2.383zm5.234 0h1.641v8.379H7.617V6.551zm30.43 0h1.777l-3.633 8.574h-.859l-3.535-8.574h1.758l2.227 5.625zm2.5 0h4.629v1.426h-2.988v1.855h2.871v1.406h-2.871v2.266h2.988v1.426h-4.629V6.551zm8.125 0q1.406 0 2.168.645t.762 1.836q0 .957-.479 1.563t-1.396.801l2.617 3.535h-1.992l-2.266-3.398h-.195v3.398H46.25V6.552h2.422zm-.313 3.847q1.582 0 1.582-1.289 0-1.23-1.582-1.23h-.469v2.52h.469zM2.09 13.504q1.484 0 2.207-.664.43-.391.674-.947t.244-1.162q0-1.27-.918-2.07-.742-.684-2.207-.684h-.449v5.527h.449z"/></svg>