<?xml version="1.0" encoding="utf-8"?>
<!-- Generated by IcoMoon.io -->
<!DOCTYPE svg PUBLIC "-//W3C//DTD SVG 1.1//EN" "http://www.w3.org/Graphics/SVG/1.1/DTD/svg11.dtd">
<svg version="1.1" xmlns="http://www.w3.org/2000/svg" xmlns:xlink="http://www.w3.org/1999/xlink" width="20" height="20" viewBox="0 0 20 20" class="icon">
<path fill="#444444" d="M17.543 6.2h-15.443c-0.566 0-1.029-0.463-1.029-1.029v0c0-0.566 0.463-1.029 1.029-1.029h15.443c0.566 0 1.029 0.463 1.029 1.029v0c0 0.566-0.463 1.029-1.029 1.029z"/>
<path fill="#444444" d="M17.543 11.029h-15.443c-0.566 0-1.029-0.463-1.029-1.029v0c0-0.566 0.463-1.029 1.029-1.029h15.443c0.566 0 1.029 0.463 1.029 1.029v0c0 0.566-0.463 1.029-1.029 1.029z"/>
<path fill="#444444" d="M17.543 15.857h-15.443c-0.566 0-1.029-0.463-1.029-1.029v0c0-0.566 0.463-1.029 1.029-1.029h15.443c0.566 0 1.029 0.463 1.029 1.029v0c0 0.566-0.463 1.029-1.029 1.029z"/>
</svg>
