<svg width="14" height="14" viewBox="0 0 14 14" xmlns="http://www.w3.org/2000/svg"><title>icon-dogecoin</title><g fill="#000" fill-rule="evenodd"><path d="M7 0C3.14 0 0 3.14 0 7s3.14 7 7 7 7-3.14 7-7-3.14-7-7-7zm3.24 8.52c-.16.5-.42.9-.72 1.2-.24.24-.56.42-.96.54-.3.1-.7.14-1.22.14H4.76V7.52h-1.2v-1h1.2V3.6h2.5c.56 0 1 .04 1.3.12.4.12.74.32 1.02.62s.5.66.64 1.1c.14.44.22.96.22 1.6 0 .58-.06 1.06-.2 1.48z"/><path d="M8.5 5.14c-.16-.16-.38-.26-.64-.32-.2-.04-.56-.06-1.12-.06h-.62v1.76h1.16v1H6.12v1.74h1.02c.38 0 .66-.02.82-.06.22-.06.4-.14.56-.28.14-.14.26-.36.36-.66.1-.3.14-.72.14-1.24s-.04-.92-.14-1.22c-.08-.28-.22-.5-.38-.66z"/></g></svg>