<?xml version="1.0" encoding="utf-8"?>
<svg version="1.1" xmlns="http://www.w3.org/2000/svg" xmlns:xlink="http://www.w3.org/1999/xlink" width="72" height="45" viewBox="0 0 72 45">
  <g fill="none" fill-rule="evenodd">
    <mask id="b" fill="#fff">
      <path d="M5.71 0c-.21 0-.414.004-.622.01-.452.012-.907.038-1.354.116-.453.08-.875.21-1.287.415-.404.2-.775.465-1.096.778-.32.313-.59.675-.795 1.07-.21.402-.344.814-.425 1.257-.082.435-.11.88-.12 1.32-.007.202-.01.405-.01.607v33.854c0 .202.004.404.01.607.012.44.04.886.12 1.322.08.44.214.853.425 1.255.205.396.475.757.795 1.07.32.314.69.577 1.096.778.412.205.834.335 1.287.414.447.078.902.106 1.354.117.208.003.414.006.623.006.244.004.49.004.738.004h59.104c.245 0 .492 0 .738-.002.207 0 .414-.004.622-.007.452-.012.907-.04 1.355-.117.453-.08.875-.21 1.287-.414.405-.2.774-.464 1.096-.778.322-.313.59-.675.797-1.07.21-.403.343-.815.423-1.257.08-.437.108-.882.12-1.323.005-.202.006-.405.01-.606V5.574c-.003-.202-.005-.405-.01-.607-.014-.44-.04-.884-.12-1.32-.082-.443-.215-.855-.424-1.257-.207-.396-.476-.756-.796-1.07-.32-.313-.692-.576-1.096-.778-.41-.203-.834-.333-1.287-.414-.448-.077-.903-.103-1.354-.115-.208-.005-.415-.007-.622-.01h-.737V0H5.71zm.005 44.06c-.202 0-.403-.005-.6-.008-.345-.01-.792-.03-1.21-.103-.385-.067-.71-.17-1.024-.328-.314-.156-.6-.36-.852-.605-.25-.244-.458-.524-.62-.833-.158-.307-.264-.623-.333-1-.074-.4-.094-.818-.104-1.178-.005-.196-.007-.39-.01-.586V5.58c0-.196.005-.39.01-.59.01-.355.03-.775.105-1.18.07-.373.175-.69.335-1 .16-.304.367-.584.62-.83.25-.243.536-.447.85-.603.314-.155.64-.26 1.022-.326.414-.074.843-.094 1.21-.104.2-.004.4-.006.6-.007L6.45.935h59.106l.73.004c.202 0 .402.003.604.008.366.01.797.03 1.21.104.383.067.707.17 1.023.327.312.156.598.36.848.604.252.245.46.526.622.833.16.306.265.623.334 1 .074.4.095.82.104 1.18.006.193.008.39.01.587V39.42c-.002.197-.004.39-.01.586-.01.36-.03.782-.104 1.184-.07.373-.174.69-.334.995-.16.308-.37.588-.62.832-.252.246-.538.45-.853.605-.314.156-.638.26-1.02.327-.42.072-.867.092-1.207.1-.2.005-.403.008-.607.008-.243.003-.488.003-.73.003H5.716z"/>
  	</mask>
  	<path fill="#121211" mask="url(#b)" d="M-5 50h82V-5H-5"/>
      <g transform="translate(10 10)">
        <mask id="d" fill="#fff">
          <path d="M8.812 1.718c-.618.713-1.154 1.853-1.007 2.945 1.07.084 2.157-.543 2.822-1.348h-.002c.665-.807 1.113-1.925.99-3.04-.958.038-2.12.64-2.803 1.443zm13.59.247c-.584.067-1.124.143-1.61.227l-.155.027v16.963h1.548v-7.147c.523.09 1.12.137 1.78.137.875 0 1.696-.112 2.44-.333.75-.222 1.408-.565 1.956-1.02.55-.458.99-1.03 1.308-1.7.316-.672.48-1.462.48-2.35 0-.738-.117-1.4-.345-1.968-.228-.57-.552-1.07-.96-1.488h-.002c-.482-.467-1.11-.83-1.854-1.08-.74-.245-1.63-.37-2.643-.37-.698 0-1.354.034-1.942.1zm.562 8.784c-.284-.028-.544-.07-.778-.13V3.405c.204-.038.457-.073.754-.105.377-.04.83-.06 1.352-.06.645 0 1.24.077 1.77.23.523.15.98.375 1.36.666.37.288.664.662.867 1.113.202.456.305 1 .305 1.62 0 1.283-.398 2.266-1.18 2.925l.002-.002c-.796.667-1.92 1.006-3.35 1.006-.39 0-.762-.02-1.103-.05zM8.314 5.752c-.754 0-1.91-.85-3.145-.825-1.618.023-3.11.94-3.94 2.387-1.68 2.922-.427 7.238 1.21 9.6.8 1.158 1.75 2.457 3.007 2.41 1.208-.046 1.66-.78 3.12-.78.72 0 1.183.19 1.62.38.453.193.877.39 1.522.376 1.297-.027 2.122-1.18 2.92-2.343.912-1.34 1.29-2.64 1.31-2.706-.026-.014-2.527-.97-2.555-3.854-.02-2.414 1.968-3.575 2.06-3.63-1.124-1.636-2.863-1.86-3.484-1.887-.1-.01-.198-.015-.297-.015-1.373 0-2.65.888-3.35.888zM33.303 6.8c-.584.165-1.157.438-1.706.814l-.127.086.526 1.224.19-.126c.4-.27.85-.484 1.34-.637.49-.15.99-.23 1.486-.23.646 0 1.162.12 1.53.35.373.234.655.524.837.86.19.35.31.72.366 1.105.058.4.086.76.086 1.066v.138c-2.295-.01-4.088.372-5.278 1.138-1.25.805-1.884 1.952-1.884 3.405 0 .42.075.84.223 1.258.152.422.378.8.676 1.122.3.326.686.592 1.15.792.46.2 1.003.3 1.61.3.48 0 .93-.06 1.34-.18.402-.123.77-.284 1.09-.485.32-.198.604-.42.845-.663.108-.107.203-.216.295-.324h.06l.142 1.375h1.492l-.04-.22c-.082-.44-.13-.898-.147-1.368l-.004-.004c-.017-.48-.025-.962-.025-1.442v-4.714c0-.56-.056-1.13-.165-1.696-.114-.578-.33-1.11-.643-1.577-.316-.473-.758-.864-1.308-1.16-.55-.296-1.267-.446-2.13-.446-.63 0-1.246.082-1.827.244zm.314 11.146c-.26-.09-.49-.228-.687-.41-.195-.18-.356-.414-.48-.698-.122-.28-.184-.63-.184-1.035 0-.664.18-1.203.53-1.596.36-.408.827-.723 1.38-.935.563-.218 1.19-.36 1.864-.425.547-.053 1.084-.08 1.59-.08.068 0 .133 0 .197.003l.002 2.406c0 .167-.04.394-.116.666-.094.283-.234.562-.415.828-.18.264-.408.507-.676.72-.267.21-.586.38-.948.506s-.78.19-1.24.19c-.282 0-.555-.048-.818-.14zm13.407-3.258c-.18.475-.35.953-.502 1.418l-.217.663h-.054c-.068-.22-.14-.448-.22-.688-.15-.46-.312-.913-.477-1.345l-3.09-7.906H40.81L45.23 18.2c.118.275.135.4.135.45 0 .015-.007.11-.135.455-.277.68-.594 1.267-.94 1.743-.353.482-.677.874-.966 1.163-.336.335-.684.612-1.036.82-.36.21-.688.384-.98.513l-.165.075.538 1.31.173-.066c.14-.052.403-.172.802-.367.404-.2.85-.514 1.327-.94.41-.356.786-.78 1.117-1.256.325-.468.652-1.02.97-1.63.317-.61.634-1.304.944-2.063.31-.763.64-1.616.985-2.535l3.57-9.04-1.655-.002-2.89 7.858z"/>
        </mask>
      <path fill="#121211" mask="url(#d)" d="M-4.567 29.728H56.57V-4.725H-4.568"/>
    </g>
  </g>
</svg>