<svg xmlns="http://www.w3.org/2000/svg" width="17" height="20" viewBox="0 0 17 20" class="icon"><path fill="#444" d="M10.156 3.875q1.895 0 3.525.859t2.646 2.471 1.016 3.584q0 1.836-1.006 3.418t-2.666 2.49-3.516.908H6.913q-1.855 0-3.457-.908t-2.529-2.49-.928-3.418q0-1.992.938-3.584t2.51-2.461 3.467-.869h3.242zM6.934 17.02q1.719 0 3.164-.84t2.285-2.285.84-3.164q0-1.699-.84-3.145t-2.285-2.285-3.164-.84q-1.699 0-3.145.84T1.504 7.586t-.84 3.145q0 1.719.84 3.164t2.285 2.285 3.145.84zm-1.426-2.579q-1.133-.43-1.836-1.445t-.723-2.266q.02-1.25.732-2.275t1.826-1.436v7.422zM8.379 7.02q1.113.41 1.826 1.436t.713 2.275-.713 2.266-1.826 1.445V7.02z"/></svg>