<?xml version="1.0" encoding="utf-8"?>
<!-- Generated by IcoMoon.io -->
<!DOCTYPE svg PUBLIC "-//W3C//DTD SVG 1.1//EN" "http://www.w3.org/Graphics/SVG/1.1/DTD/svg11.dtd">
<svg version="1.1" xmlns="http://www.w3.org/2000/svg" xmlns:xlink="http://www.w3.org/1999/xlink" width="20" height="20" viewBox="0 0 20 20" class="icon">
<path fill="#444444" d="M0.215 6.814l0.899 1.203q1.249-0.929 1.508-0.929 0.99 0 1.843 3.153 0.229 0.868 0.746 2.826t0.807 3.009q1.127 3.153 2.833 3.153 2.712 0 6.581-5.21 3.793-4.951 3.93-7.83v-0.335q0-3.504-2.803-3.595h-0.213q-3.763 0-5.179 4.616 0.823-0.35 1.432-0.35 1.295 0 1.295 1.341 0 0.168-0.015 0.35-0.091 1.082-1.28 2.955-1.219 1.965-1.813 1.965-0.792 0-1.401-2.986-0.183-0.701-0.777-4.524-0.259-1.645-0.96-2.437-0.609-0.686-1.523-0.701-0.122 0-0.259 0.015-0.96 0.091-2.849 1.752-0.975 0.914-2.803 2.559z"/>
</svg>
