<?xml version="1.0" encoding="utf-8"?>
<!-- Generated by IcoMoon.io -->
<!DOCTYPE svg PUBLIC "-//W3C//DTD SVG 1.1//EN" "http://www.w3.org/Graphics/SVG/1.1/DTD/svg11.dtd">
<svg version="1.1" xmlns="http://www.w3.org/2000/svg" xmlns:xlink="http://www.w3.org/1999/xlink" width="20" height="20" viewBox="0 0 20 20" class="icon">
<path fill="#444444" d="M8.373 7.623v-0.46h-1.767v2.207h1.767v-0.453h-1.24v-0.44h1.207v-0.453h-1.207v-0.4zM10.86 7.757c0-0.247-0.1-0.393-0.267-0.487-0.173-0.1-0.367-0.107-0.64-0.107h-1.213v2.213h0.527v-0.807h0.567c0.193 0 0.307 0.020 0.387 0.093 0.093 0.107 0.087 0.3 0.087 0.433v0.28h0.533v-0.433c0-0.2-0.013-0.293-0.087-0.407-0.047-0.067-0.147-0.14-0.26-0.187 0.133-0.060 0.367-0.24 0.367-0.593zM10.167 8.070c-0.073 0.047-0.16 0.047-0.26 0.047h-0.64v-0.493h0.653c0.093 0 0.187 0.007 0.253 0.040s0.113 0.1 0.113 0.193c-0.007 0.1-0.047 0.173-0.12 0.213zM1.293 8.883h1.1l0.2 0.493h1.073v-1.733l0.767 1.733h0.467l0.767-1.733v1.733h0.54v-2.213h-0.873l-0.633 1.5-0.693-1.5h-0.86v2.093l-0.9-2.093h-0.787l-0.887 2.067v0.14h0.513l0.207-0.487zM1.84 7.537l0.36 0.88h-0.72l0.36-0.88zM13.060 7.637h0.5v-0.473h-0.513c-0.367 0-0.633 0.080-0.8 0.26-0.227 0.24-0.287 0.533-0.287 0.867 0 0.4 0.093 0.653 0.28 0.847 0.147 0.2 0.413 0.273 0.767 0.247h0.62l0.2-0.493h1.1l0.207 0.493h1.073v-1.66l1 1.66h0.747v-2.213h-0.54v1.54l-0.927-1.54h-0.807v2.093l-0.893-2.093h-0.787l-0.747 1.74h-0.24c-0.14 0-0.287-0.027-0.367-0.113-0.1-0.113-0.147-0.28-0.147-0.52 0-0.233 0.060-0.407 0.153-0.5 0.107-0.113 0.213-0.14 0.407-0.14zM14.38 7.537l0.367 0.88h-0.727l0.36-0.88zM11.167 7.163h0.54v2.213h-0.54v-2.213zM13.127 11.563c0-0.253-0.107-0.393-0.273-0.493-0.173-0.093-0.367-0.107-0.633-0.107h-1.22v2.213h0.533v-0.807h0.567c0.193 0 0.313 0.020 0.387 0.1 0.1 0.1 0.087 0.3 0.087 0.433v0.273h0.533v-0.44c0-0.193-0.013-0.293-0.087-0.407-0.047-0.067-0.14-0.14-0.26-0.187 0.127-0.047 0.367-0.227 0.367-0.58zM12.433 11.877c-0.073 0.040-0.16 0.047-0.26 0.047h-0.64v-0.493h0.653c0.093 0 0.187 0 0.253 0.040 0.067 0.033 0.107 0.107 0.107 0.2s-0.047 0.167-0.113 0.207zM9.86 10.97h-1.687l-0.673 0.727-0.653-0.727h-2.12v2.213h2.093l0.673-0.733 0.653 0.733h1.027v-0.74h0.66c0.46 0 0.92-0.127 0.92-0.74-0.007-0.62-0.473-0.733-0.893-0.733zM6.547 12.717h-1.293v-0.44h1.16v-0.453h-1.16v-0.4h1.327l0.58 0.647-0.613 0.647zM8.647 12.977l-0.813-0.9 0.813-0.873v1.773zM9.853 11.99h-0.68v-0.56h0.687c0.193 0 0.32 0.080 0.32 0.273 0 0.187-0.127 0.287-0.327 0.287zM15.18 11.423v-0.453h-1.76v2.207h1.76v-0.46h-1.233v-0.44h1.207v-0.453h-1.207v-0.4zM19.307 12.070v0c-0.013-0.020-0.027-0.040-0.047-0.053-0.12-0.12-0.313-0.173-0.6-0.18l-0.287-0.007c-0.087 0-0.147-0.007-0.207-0.027-0.067-0.027-0.113-0.080-0.113-0.167 0-0.073 0.020-0.12 0.080-0.16 0.053-0.033 0.12-0.040 0.213-0.040h0.96v-0.473h-1.053c-0.553 0-0.76 0.34-0.76 0.66 0 0.7 0.62 0.667 1.113 0.687 0.093 0 0.147 0.013 0.187 0.047s0.067 0.080 0.067 0.147c0 0.060-0.027 0.107-0.060 0.147-0.040 0.040-0.113 0.053-0.213 0.053h-1.013v0.473h1.020c0.34 0 0.587-0.093 0.72-0.28v0 0c0.073-0.107 0.113-0.247 0.113-0.413-0.007-0.193-0.047-0.313-0.12-0.413zM18.533 13.61h-1.367v-0.2c-0.16 0.127-0.447 0.2-0.72 0.2h-4.313v-0.713c0-0.087-0.007-0.093-0.093-0.093h-0.067v0.807h-1.42v-0.833c-0.24 0.1-0.507 0.113-0.733 0.107h-0.167v0.733h-1.72l-0.427-0.48-0.447 0.48h-2.813v-3.087h2.847l0.407 0.473 0.433-0.473h1.907c0.22 0 0.58 0.020 0.747 0.18v-0.18h1.707c0.16 0 0.507 0.033 0.713 0.18v-0.18h2.58v0.18c0.127-0.12 0.4-0.18 0.633-0.18h1.447v0.18c0.153-0.107 0.367-0.18 0.66-0.18h0.98v-10.273h-18.733v7.78l0.573-1.313h1.38l0.18 0.367v-0.367h1.613l0.353 0.793 0.347-0.793h5.127c0.233 0 0.44 0.047 0.593 0.18v-0.18h1.407v0.18c0.24-0.133 0.54-0.18 0.88-0.18h2.033l0.187 0.367v-0.367h1.507l0.207 0.367v-0.367h1.467v3.080h-1.48l-0.28-0.467v0.467h-1.853l-0.2-0.493h-0.453l-0.207 0.493h-0.96c-0.38 0-0.66-0.087-0.847-0.187v0.187h-2.28v-0.7c0-0.1-0.020-0.107-0.080-0.107h-0.087v0.807h-4.413v-0.38l-0.16 0.38h-0.92l-0.16-0.38v0.373h-1.773l-0.2-0.493h-0.453l-0.207 0.493h-0.84v9.313h18.727v-5.653c-0.207 0.113-0.487 0.153-0.767 0.153zM16.52 12.703h-1.027v0.473h1.027c0.533 0 0.827-0.22 0.827-0.7 0-0.227-0.053-0.36-0.16-0.467-0.12-0.12-0.313-0.173-0.607-0.18l-0.287-0.007c-0.087 0-0.147-0.007-0.207-0.027-0.067-0.027-0.113-0.080-0.113-0.167 0-0.073 0.020-0.12 0.080-0.16 0.053-0.033 0.113-0.040 0.213-0.040h0.967v-0.473h-1.060c-0.553 0-0.753 0.34-0.753 0.66 0 0.7 0.62 0.667 1.113 0.687 0.093 0 0.147 0.013 0.187 0.047 0.033 0.033 0.067 0.080 0.067 0.147 0 0.060-0.027 0.107-0.060 0.147-0.033 0.047-0.107 0.060-0.207 0.060z"/>
</svg>
