<?xml version="1.0" encoding="utf-8"?>
<!-- Generated by IcoMoon.io -->
<!DOCTYPE svg PUBLIC "-//W3C//DTD SVG 1.1//EN" "http://www.w3.org/Graphics/SVG/1.1/DTD/svg11.dtd">
<svg version="1.1" xmlns="http://www.w3.org/2000/svg" xmlns:xlink="http://www.w3.org/1999/xlink" width="21" height="20" viewBox="0 0 21 20" class="icon">
<path fill="#444444" d="M-0.196 15.803q0 1.23 0.812 2.092t1.977 0.861h14.946q1.165 0 1.977-0.861t0.812-2.092v-11.894q0-1.23-0.82-2.116t-1.969-0.886h-14.946q-1.148 0-1.969 0.886t-0.82 2.116v11.894zM7.269 13.654v-7.596q0-0.115 0.066-0.18 0.049-0.016 0.082-0.016l0.082 0.016 7.153 3.806q0.066 0.066 0.066 0.164 0 0.066-0.066 0.131l-7.153 3.806q-0.033 0.033-0.066 0.033-0.066 0-0.098-0.033-0.066-0.066-0.066-0.131z"/>
</svg>
