<?xml version="1.0" encoding="utf-8"?>
<!-- Generated by IcoMoon.io -->
<!DOCTYPE svg PUBLIC "-//W3C//DTD SVG 1.1//EN" "http://www.w3.org/Graphics/SVG/1.1/DTD/svg11.dtd">
<svg version="1.1" xmlns="http://www.w3.org/2000/svg" xmlns:xlink="http://www.w3.org/1999/xlink" width="20" height="20" viewbox="0 0 20 20" class="icon">
<path d="M12.226 6.763q-1.147-0.805-2.561-0.805t-2.561 0.805h-6.855v-1.293q0-1.927 1.366-3.293t3.293-1.366h9.319q1.952 0 3.318 1.366t1.366 3.293v1.293h-6.684zM13.47 5.251q0 0.195 0.159 0.342t0.378 0.146h1.61q0.195 0 0.342-0.146t0.146-0.342v-1.61q0-0.22-0.146-0.378t-0.342-0.159h-1.61q-0.22 0-0.378 0.159t-0.159 0.378v1.61zM5.664 8.495q-0.439 0.951-0.439 1.854 0 1.854 1.305 3.159t3.135 1.305 3.135-1.305 1.305-3.159q0-0.951-0.415-1.854h5.22v6.391q0 1.927-1.378 3.293t-3.305 1.366h-9.319q-1.927 0-3.293-1.366t-1.366-3.293v-6.391h5.416zM11.494 10.349q0 0.781-0.537 1.317t-1.293 0.537-1.293-0.537-0.537-1.317q0-0.756 0.537-1.293t1.293-0.537 1.293 0.537 0.537 1.293z"/>
</svg>
