<?xml version="1.0" encoding="UTF-8" standalone="no"?>
<svg width="31px" height="20px" viewBox="0 0 31 20" version="1.1" xmlns="http://www.w3.org/2000/svg" xmlns:xlink="http://www.w3.org/1999/xlink">
    <!-- Generator: Sketch 3.6.1 (26313) - http://www.bohemiancoding.com/sketch -->
    <title>Group</title>
    <desc>Created with Sketch.</desc>
    <defs></defs>
    <g id="Page-1" stroke="none" stroke-width="1" fill="none" fill-rule="evenodd">
        <g id="Group" fill="#000000">
            <path d="M31,18.7963889 C31,19.4866667 30.5444107,20 29.8685,20 L1.31583929,20 C0.640205357,20 0,19.4866667 0,18.7963889 L0,1.29638889 C0,0.605833333 0.640205357,0 1.31583929,0 L29.8685,0 C30.5444107,0 31,0.605833333 31,1.29638889 L31,18.7963889 Z M23.7114018,4.72222222 C23.7114018,5.02916667 23.3850714,5.27777778 22.9823482,5.27777778 L8.11009821,5.27777778 C7.707375,5.27777778 7.38104464,5.02916667 7.38104464,4.72222222 C7.38104464,4.41527778 7.707375,4.16666667 8.11009821,4.16666667 L22.9823482,4.16666667 C23.3847946,4.16666667 23.7114018,4.41527778 23.7114018,4.72222222 Z M22.6042589,6.94444444 C22.6042589,7.25138889 22.2779286,7.5 21.8752054,7.5 L9.21724107,7.5 C8.81451786,7.5 8.4881875,7.25138889 8.4881875,6.94444444 C8.4881875,6.6375 8.81451786,6.38888889 9.21724107,6.38888889 L21.8752054,6.38888889 C22.2776518,6.38888889 22.6042589,6.6375 22.6042589,6.94444444 Z M21.3125,9.16666667 C21.3125,9.47361111 20.9861696,9.72222222 20.5834464,9.72222222 L10.4165536,9.72222222 C10.0138304,9.72222222 9.6875,9.47361111 9.6875,9.16666667 C9.6875,8.85972222 10.0138304,8.61111111 10.4165536,8.61111111 L20.5834464,8.61111111 C20.9861696,8.61111111 21.3125,8.85972222 21.3125,9.16666667 Z M20.0716696,11.5 C20.0716696,11.7222222 19.7453393,11.9444444 19.3426161,11.9444444 L11.6667946,11.9444444 C11.2640714,11.9444444 10.9377411,11.6958333 10.9377411,11.3888889 C10.9377411,11.0819444 11.2640714,10.8333333 11.6667946,10.8333333 L19.3426161,10.8333333 C19.7450625,10.8333333 20.0716696,11.0555556 20.0716696,11.5 Z M18.5446429,13.6111111 C18.5446429,13.9180556 18.2183125,14.1666667 17.8155893,14.1666667 L13.1844107,14.1666667 C12.7816875,14.1666667 12.4553571,13.9180556 12.4553571,13.6111111 C12.4553571,13.3041667 12.7816875,13.0555556 13.1844107,13.0555556 L17.8155893,13.0555556 C18.2183125,13.0555556 18.5446429,13.3041667 18.5446429,13.6111111 Z M16.8839286,15.8333333 C16.8839286,16.1402778 16.5213393,16.3888889 16.0737768,16.3888889 L14.9259464,16.3888889 C14.4786607,16.3888889 14.1160714,16.1402778 14.1160714,15.8333333 C14.1160714,15.5263889 14.4786607,15.2777778 14.9262232,15.2777778 L16.0740536,15.2777778 C16.5213393,15.2777778 16.8839286,15.5263889 16.8839286,15.8333333 Z" id="Combined-Shape"></path>
        </g>
    </g>
</svg>