<?xml version="1.0" encoding="utf-8"?>
<!-- Generated by IcoMoon.io -->
<!DOCTYPE svg PUBLIC "-//W3C//DTD SVG 1.1//EN" "http://www.w3.org/Graphics/SVG/1.1/DTD/svg11.dtd">
<svg version="1.1" xmlns="http://www.w3.org/2000/svg" xmlns:xlink="http://www.w3.org/1999/xlink" width="20" height="20" viewBox="0 0 20 20" class="icon">
<path fill="#444444" d="M17.254 0.675q0.668 0 1.143 0.483t0.475 1.151v14.73q0 0.668-0.475 1.151t-1.143 0.483h-14.625q-0.668 0-1.151-0.483t-0.483-1.151v-14.73q0-0.668 0.483-1.151t1.151-0.483h14.625zM18.52 2.31q0-0.527-0.369-0.905t-0.896-0.378h-14.625q-0.527 0-0.905 0.378t-0.378 0.905v14.73q0 0.527 0.378 0.905t0.905 0.378h14.625q0.527 0 0.896-0.378t0.369-0.905v-14.73zM16.938 4.366q-0.053-0.176-0.123-0.246-0.070-0.018-0.229 0-0.193 0.053-0.299 0.264-0.123 0.193-0.123 0.598 0 0.334 0.123 0.475 0.105 0.158 0.299 0.070 0.123-0.053 0.229-0.176 0.088-0.088 0.158-0.352l0.686-0.105q-0.018 0.264-0.176 0.58-0.141 0.316-0.334 0.457-0.246 0.211-0.527 0.281-0.387 0.105-0.51 0.070-0.246-0.035-0.352-0.141-0.158-0.141-0.246-0.352-0.070-0.281-0.070-0.615 0-0.422 0.105-0.738 0.035-0.141 0.211-0.422 0.141-0.246 0.246-0.316 0.158-0.158 0.563-0.281 0.457-0.158 0.721 0.018 0.246 0.158 0.352 0.58zM15.092 6.036q0 0.229 0.018 0.316 0 0.105 0.088 0.246l-0.721 0.211-0.035-0.141q-0.035-0.105-0.035-0.158-0.158 0.264-0.299 0.352-0.176 0.176-0.439 0.264-0.369 0.088-0.527-0.053-0.193-0.229-0.193-0.527t0.141-0.545q0.105-0.211 0.475-0.422 0.475-0.299 0.527-0.352 0.176-0.088 0.281-0.193 0-0.176-0.053-0.264-0.070-0.070-0.211-0.018-0.141 0.035-0.281 0.176-0.070 0.141-0.105 0.281l-0.703 0.105q0.053-0.281 0.123-0.439 0.035-0.141 0.193-0.334 0.176-0.141 0.299-0.211l0.387-0.158q0.387-0.088 0.527-0.088 0.193 0 0.352 0.105 0.088 0.088 0.141 0.264 0.053 0.211 0.053 0.404v1.178zM6.971 10.923q0.053 0.070 0.211 0.255t0.272 0.316 0.272 0.334 0.272 0.36 0.22 0.343 0.158 0.334 0.053 0.272v5.098h-3.041q-0.105-0.264-0.475-0.729t-0.369-0.8v-4.729q-0.158 0.070-0.87 0.308t-0.905 0.272q-0.053 0-0.167 0.009t-0.22-0.079-0.105-0.246v-5.836q0-0.334 0.369-0.492 1.74-0.703 3.832-1.371 0.211-0.053 0.352 0.035t0.141 0.316v6.029zM12.033 5.28q0.088-0.281 0.211-0.457 0.070-0.141 0.264-0.193 0.141-0.053 0.352 0.035l-0.211 0.809q-0.193-0.035-0.229-0.018-0.141 0.053-0.229 0.246-0.105 0.299-0.105 0.914v0.914l-0.738 0.211v-2.689l0.686-0.211v0.439zM6.76 5.017q0-0.070-0.018-0.132t-0.088-0.105-0.176-0.026l-2.32 0.809v6.328q0.264-0.088 0.387-0.158v-1.318q0-0.193 0.246-0.396t0.51-0.202q0.105 0 0.22 0.026t0.237 0.088 0.211 0.193 0.088 0.29v3.305h0.123v-2.619q0.58-0.158 0.58-0.404v-1.547l-0.738 0.229v-1.477q0-0.264-0.070-0.369-0.088-0.088-0.211-0.035-0.088 0.018-0.211 0.193-0.070 0.193-0.070 0.545v1.301l-0.738 0.229v-2.689l0.686-0.229v0.439q0.211-0.387 0.299-0.475 0.141-0.176 0.404-0.229 0.299-0.105 0.457 0.105 0.193 0.176 0.193 0.738v-2.408zM8.078 7.741q0 0.211 0.018 0.246 0.088 0.053 0.158 0.035 0.105-0.035 0.211-0.123l0.053 0.703q-0.299 0.158-0.51 0.229-0.299 0.088-0.404 0.035-0.123-0.070-0.176-0.246-0.088-0.176-0.088-0.65v-0.967l-0.264 0.105v-0.773l0.264-0.088v-0.492l0.738-0.738v1.020l0.422-0.123v0.756l-0.422 0.123v0.949zM10.943 7.179q-0.158 0.457-0.404 0.721-0.229 0.229-0.668 0.369-0.352 0.088-0.615 0.035-0.229-0.123-0.334-0.369-0.176-0.299-0.176-0.756 0-0.598 0.299-1.107 0.264-0.439 0.809-0.65 0.439-0.123 0.65-0.018 0.229 0.105 0.352 0.422 0.141 0.316 0.141 0.826v0.123l-1.494 0.439q0.035 0.281 0.088 0.334 0.141 0.176 0.299 0.088 0.123-0.035 0.211-0.141 0.053-0.053 0.123-0.193zM14.371 5.562q-0.018 0.018-0.141 0.105t-0.193 0.123q-0.246 0.193-0.281 0.246-0.053 0.105-0.053 0.193 0 0.158 0.053 0.211t0.176 0.018q0.088-0.018 0.246-0.141 0.105-0.158 0.158-0.264 0.035-0.176 0.035-0.334v-0.158zM3.244 5.913q-0.035 0.018-0.141 0.053t-0.167 0.062-0.149 0.062-0.141 0.070-0.105 0.079-0.079 0.097-0.026 0.123v5.748q0 0.211 0.246 0.211 0.193 0 0.563-0.211v-6.293zM10.223 6.511q0-0.281-0.105-0.422-0.088-0.088-0.246-0.053-0.141 0.053-0.281 0.299-0.070 0.141-0.070 0.387zM4.422 13.437q-0.088 0.018-0.378 0.114t-0.36 0.097q-0.264 0-0.413-0.202t-0.149-0.466q0-0.229 0.211-0.378t0.633-0.272 0.457-0.141v1.248zM4.422 14.65q-0.070 0.018-0.246 0.088t-0.299 0.105-0.193 0.035q-0.264 0-0.387-0.193t-0.123-0.369q0-0.211 0.158-0.352t0.308-0.185 0.448-0.105 0.334-0.062v1.037zM4.422 15.862q-0.422 0.229-0.598 0.229-0.65 0-0.65-0.615 0-0.088 0.044-0.167t0.114-0.132 0.167-0.097 0.193-0.079 0.211-0.062 0.202-0.035 0.176-0.026 0.141-0.035v1.020z"/>
</svg>
