<svg xmlns="http://www.w3.org/2000/svg" viewBox="-382 297 46.8 20"><style>.st0{fill:#444}</style><g id="REAQyD.tif"><path class="st0" d="M-335.7 311.8h-.9c-.3-.9-.7-1.7-1-2.6h-3.8c-.3.9-.7 1.7-1 2.6h-6.1v-8.5h.8v7.7h4.7c1-2.6 3.1-7.8 3.1-7.8h.9s.3.7.5 1.1c.9 2.3 1.8 4.7 2.7 7.1 0 .1 0 .2.1.2v.2zm-3.7-7.5c-.6 1.4-1.2 2.7-1.7 4.2h3.2c-.5-1.5-1-2.9-1.5-4.2zM-366.9 310.5c.6-2.4 1.9-7.2 1.9-7.2h.8s-1.5 5.7-2.3 8.5h-.9l-2.1-7.5h-.1c-.7 2.5-1.4 5-2.1 7.4-.3.1-.6 0-.9 0-.8-2.8-2.3-8.5-2.3-8.5h.9s1.2 4.8 1.9 7.2h.1c.7-2.4 1.3-4.8 2-7.2h1c.7 2.4 1.3 4.8 2 7.2 0 .1.1.1.1.1zM-382 311.8v-8.6h1.3s1.6 0 2.4.1c1.6.2 2.7 1.1 3.1 2.7.3 1.1.3 2.3 0 3.4-.4 1.5-1.4 2.2-2.9 2.4-1.4.1-2.6 0-3.9 0zm.8-.7c.8 0 1.6.1 2.4 0 1.6-.1 2.4-.9 2.7-2.3.2-.9.2-1.8-.1-2.7-.2-.9-.8-1.5-1.7-1.8-1.1-.4-2.2-.2-3.4-.2.1 2.3.1 4.6.1 7zM-364 307.6c0-1.1.2-2 .8-2.9 1.5-2.3 5.5-2.3 6.7.5.7 1.5.7 3.1 0 4.6-.7 1.6-2 2.3-3.8 2.2-1.6-.1-2.8-.9-3.4-2.4-.2-.6-.3-1.3-.3-2zm7.2-.1c0-.8-.2-1.6-.6-2.3-1.1-1.7-3.7-1.9-4.9-.3-1.1 1.4-1.1 3.9-.1 5.3 1.1 1.5 3.8 1.5 4.9-.1.5-.8.7-1.6.7-2.6zM-354.1 311.1h4.7c.2.2.1.4.1.7h-5.6v-8.4h.8v7.7z"/></g></svg>
