<svg xmlns="http://www.w3.org/2000/svg" width="20" height="20" viewBox="0 0 20 20" class="icon"><path fill="#444" d="M19.551 4.208q-.815 1.202-1.956 2.038 0 .082.02.255t.02.255q0 1.589-.469 3.179t-1.426 3.036-2.272 2.567-3.158 1.793-3.963.672q-3.301 0-6.031-1.773.571.041.937.041 2.751 0 4.911-1.671-1.284-.02-2.292-.784T2.456 11.85q.346.082.754.082.55 0 1.039-.163-1.365-.285-2.262-1.365T1.09 7.918v-.041q.774.408 1.773.448-.795-.53-1.263-1.396t-.469-1.864q0-1.019.509-1.997 1.487 1.854 3.596 2.924T9.81 7.184q-.143-.509-.143-.897 0-1.63 1.161-2.781t2.832-1.151q.815 0 1.569.326t1.284.917q1.345-.265 2.506-.958-.428 1.386-1.732 2.18 1.243-.163 2.262-.611z"/></svg>