<?xml version="1.0" encoding="utf-8"?>
<!-- Generated by IcoMoon.io -->
<!DOCTYPE svg PUBLIC "-//W3C//DTD SVG 1.1//EN" "http://www.w3.org/Graphics/SVG/1.1/DTD/svg11.dtd">
<svg version="1.1" xmlns="http://www.w3.org/2000/svg" xmlns:xlink="http://www.w3.org/1999/xlink" width="23" height="20" viewBox="0 0 23 20" class="icon">
<path fill="#444444" d="M13.984 12.879q-0.566 1.855-1.973 3.203 1.914 1.543 4.355 1.543 1.855 0 3.447-0.918t2.51-2.51 0.918-3.447q0-1.387-0.547-2.666t-1.465-2.197-2.197-1.465-2.666-0.547q-2.441 0-4.355 1.543 1.406 1.348 1.973 3.203h-0.547q-0.527-1.602-1.816-2.852-1.289 1.23-1.797 2.852h-0.566q0.527-1.816 1.934-3.203-1.934-1.543-4.316-1.543-1.855 0-3.447 0.918t-2.51 2.51-0.918 3.447 0.918 3.447 2.51 2.51 3.447 0.918q2.383 0 4.316-1.543-1.406-1.387-1.934-3.203h0.566q0.508 1.621 1.797 2.852 1.289-1.25 1.816-2.852h0.547zM7.207 8.699q-0.039 0.273-0.156 0.723-0.938-0.43-1.641 0-0.625 0.488-0.566 1.367 0.059 0.43 0.469 0.645 0.605 0.195 1.387-0.156-0.020 0.117-0.059 0.283t-0.068 0.293-0.068 0.225q-0.918 0.273-1.699 0.020-0.391-0.137-0.674-0.479t-0.303-0.732q-0.078-0.41 0.029-0.82t0.381-0.752 0.664-0.537q0.957-0.469 2.305-0.078zM10.762 10.086q-0.098-0.020-0.195 0.010t-0.186 0.088-0.156 0.137-0.107 0.176q-0.078 0.176-0.137 0.42t-0.098 0.42-0.098 0.459-0.078 0.42h-1.035l0.039-0.195q0.059-0.293 0.273-1.24t0.293-1.455h0.879q0 0.020-0.059 0.449l0.146-0.146t0.225-0.195 0.283-0.107 0.459-0.020l-0.293 0.82zM13.145 10.125l-0.156-0.039q-0.352-0.059-0.625 0.41-0.098 0.176-0.166 0.42t-0.098 0.42-0.088 0.459-0.078 0.42h-1.035l0.059-0.195q0.059-0.293 0.176-0.85t0.205-1.006 0.146-0.84h0.898q0.020 0.176-0.059 0.449l0.156-0.156t0.225-0.195 0.293-0.107 0.459-0.010zM16.875 11.57q0.469 0.117 0.898 0.117 0.547 0 0.547-0.254 0-0.117-0.078-0.176t-0.371-0.176q-0.762-0.254-0.762-0.82 0-0.215 0.078-0.381t0.254-0.303 0.469-0.215 0.703-0.078q0.625 0 0.898 0.059l-0.156 0.664q-0.254-0.020-0.703-0.020-0.508 0-0.508 0.215 0 0.117 0.078 0.176t0.391 0.156q0.703 0.254 0.703 0.82 0 0.977-1.543 0.977-0.117 0-0.547-0.039-0.215 0-0.273-0.020l-0.176-0.020h-0.059zM8.633 9.324l-0.586 2.891h-0.996l0.586-2.891h0.996zM16.367 11.473l-0.117 0.742h-0.918l0.078-0.469q-0.488 0.547-1.113 0.547-0.43 0-0.674-0.283t-0.244-0.713q0-0.020 0.078-0.605l0.273-1.348h0.977l-0.273 1.348q0 0.039-0.039 0.186t-0.039 0.244q0 0.137 0.127 0.244t0.303 0.088q0.605 0 0.762-0.781l0.273-1.328h1.016z"/>
</svg>
