<?xml version="1.0" encoding="utf-8"?>
<!-- Generated by IcoMoon.io -->
<!DOCTYPE svg PUBLIC "-//W3C//DTD SVG 1.1//EN" "http://www.w3.org/Graphics/SVG/1.1/DTD/svg11.dtd">
<svg version="1.1" xmlns="http://www.w3.org/2000/svg" xmlns:xlink="http://www.w3.org/1999/xlink" width="20" height="20" viewBox="0 0 20 20" class="icon">
<path fill="#444444" d="M18.050 0.811q0.439 0 0.744 0.305t0.305 0.744v16.637q0 0.439-0.305 0.744t-0.744 0.305h-4.732v-7.221h2.415l0.342-2.854h-2.757v-1.83q0-0.659 0.293-1t1.073-0.342h1.488v-2.537q-0.976-0.098-2.171-0.098-1.634 0-2.635 0.964t-1 2.72v2.122h-2.415v2.854h2.415v7.221h-8.953q-0.439 0-0.744-0.305t-0.305-0.744v-16.637q0-0.439 0.305-0.744t0.744-0.305h16.637z"/>
</svg>
