<?xml version="1.0" encoding="utf-8"?>
<!-- Generated by IcoMoon.io -->
<!DOCTYPE svg PUBLIC "-//W3C//DTD SVG 1.1//EN" "http://www.w3.org/Graphics/SVG/1.1/DTD/svg11.dtd">
<svg version="1.1" xmlns="http://www.w3.org/2000/svg" xmlns:xlink="http://www.w3.org/1999/xlink" width="49" height="20" viewBox="0 0 49 20" class="icon">
<path fill="#444444" d="M6.816 3.875q1.875 0 3.467 0.908t2.52 2.48 0.928 3.428q0 1.875-0.908 3.467t-2.48 2.529-3.428 0.938q-1.875 0-3.467-0.908t-2.52-2.48-0.928-3.447 0.908-3.467 2.48-2.52 3.428-0.928zM6.953 13.719q0.957 0.254 1.66 0.029t0.996-1.045q0.43-1.23-0.684-1.816 0.84-0.195 0.977-1.113 0.176-1.152-1.504-1.738l0.313-1.25-0.762-0.176-0.293 1.191q-0.117-0.020-0.322-0.068t-0.283-0.068l0.293-1.211-0.742-0.195-0.313 1.23q-0.176-0.020-0.488-0.098v-0.020l-1.035-0.254-0.195 0.801 0.547 0.137q0.371 0.098 0.332 0.449l-0.352 1.406-0.508 1.973q-0.059 0.254-0.332 0.195l-0.547-0.156-0.391 0.879 0.996 0.234q0.176 0.059 0.527 0.137l-0.313 1.27 0.742 0.176 0.313-1.23q0.488 0.137 0.605 0.156l-0.313 1.23 0.762 0.195zM17.617 9.227q0.176-0.078 0.449-0.156 0.234-0.059 0.469-0.059 0.547 0 0.918 0.195 0.391 0.176 0.645 0.508 0.215 0.273 0.391 0.742 0.117 0.43 0.117 0.938 0 0.781-0.293 1.445-0.254 0.664-0.762 1.191-0.469 0.488-1.152 0.801-0.664 0.293-1.445 0.293-0.020 0-0.137-0.010t-0.215-0.010q-0.137 0-0.566-0.039-0.43-0.078-0.684-0.137-0.41-0.098-0.684-0.254l1.934-8.047 1.699-0.254zM24.629 7.313q0 0.195-0.098 0.43-0.078 0.176-0.254 0.352-0.137 0.156-0.352 0.234-0.176 0.098-0.449 0.098-0.352 0-0.605-0.195-0.293-0.195-0.293-0.645 0-0.195 0.098-0.43 0.078-0.176 0.254-0.352 0.156-0.137 0.352-0.234 0.234-0.098 0.449-0.098 0.313 0 0.625 0.215 0.273 0.215 0.273 0.625zM41.836 8.23q-0.273-0.195-0.273-0.645 0-0.254 0.098-0.43 0.098-0.195 0.234-0.352 0.195-0.156 0.371-0.234 0.234-0.098 0.43-0.098 0.313 0 0.625 0.215 0.273 0.215 0.273 0.625 0 0.195-0.098 0.43-0.078 0.215-0.234 0.352-0.195 0.156-0.371 0.234-0.176 0.098-0.43 0.098-0.371 0-0.625-0.195zM27.051 9.129h1.855l-0.332 1.348h-1.836l-0.488 2.051q-0.078 0.352-0.078 0.469-0.020 0.215 0.059 0.391 0.059 0.176 0.234 0.254 0.156 0.078 0.488 0.078 0.176 0 0.527-0.039 0.156-0.039 0.508-0.156l0.117 1.27q-0.469 0.156-0.723 0.215-0.332 0.078-0.918 0.078-0.781 0-1.191-0.215-0.41-0.234-0.586-0.625-0.195-0.352-0.156-0.898 0-0.488 0.156-1.074l1.074-4.59 1.719-0.273zM6.836 8.563q0.039 0 0.117 0.020 0.234 0.059 0.381 0.098t0.41 0.137 0.4 0.205 0.234 0.303 0.039 0.43q-0.039 0.176-0.146 0.293t-0.273 0.156-0.303 0.059-0.361-0.010-0.332-0.049-0.313-0.078-0.225-0.059zM33.477 10.613q-0.254-0.098-0.449-0.156-0.215-0.078-0.586-0.078-0.84 0-1.309 0.547-0.469 0.586-0.469 1.523 0 0.566 0.234 0.918 0.254 0.352 0.898 0.352 0.332 0 0.625-0.059 0.43-0.137 0.527-0.176l0.117 1.328q-0.332 0.137-0.664 0.215-0.43 0.098-0.918 0.098-0.664 0-1.152-0.215-0.43-0.156-0.801-0.527-0.332-0.391-0.43-0.801-0.156-0.469-0.156-0.938 0-0.703 0.254-1.426 0.234-0.664 0.703-1.172 0.41-0.469 1.094-0.781 0.645-0.293 1.445-0.293 0.449 0 0.898 0.098 0.293 0.059 0.703 0.254zM39.004 9.656q0.273 0.313 0.43 0.762 0.137 0.41 0.137 0.957 0 0.723-0.195 1.328-0.254 0.742-0.625 1.211-0.41 0.527-1.035 0.859-0.625 0.352-1.426 0.352-0.605 0-1.016-0.195-0.469-0.195-0.703-0.488-0.273-0.313-0.43-0.762-0.156-0.469-0.156-0.977 0-0.645 0.234-1.328 0.215-0.664 0.625-1.191t1.035-0.859q0.605-0.352 1.387-0.352 0.566 0 1.016 0.176 0.41 0.156 0.723 0.508zM44.492 9.402q0.039-0.020 0.098-0.029t0.107-0.029 0.107-0.039 0.098-0.039l0.508-0.117q0.293-0.059 0.645-0.117 0.234-0.020 0.781-0.020 1.348 0 1.797 0.742 0.488 0.762 0.176 2.070l-0.762 3.145h-1.641l0.723-3.086q0.078-0.41 0.098-0.566 0.059-0.254 0-0.469-0.020-0.195-0.195-0.332-0.215-0.137-0.508-0.137-0.215 0-0.645 0.078l-1.074 4.512h-1.66zM22.422 9.129h1.66l-1.406 5.84h-1.621zM41.406 9.129h1.641l-1.387 5.84h-1.641zM5.098 9.91l0.078 0.020q-0.039 0-0.078-0.020zM16.543 13.719q0.098 0 0.117 0.020h0.117q0.039 0.020 0.117 0.020h0.215q0.391 0 0.723-0.195 0.332-0.176 0.586-0.508 0.234-0.273 0.41-0.703 0.137-0.469 0.137-0.84 0-0.527-0.176-0.82-0.176-0.313-0.664-0.313-0.156 0-0.391 0.059t-0.449 0.234zM37.852 12.273q0.078-0.332 0.078-0.723 0-0.547-0.176-0.879-0.176-0.293-0.645-0.293-0.371 0-0.645 0.215t-0.449 0.527q-0.215 0.332-0.293 0.703-0.098 0.43-0.098 0.723 0 0.566 0.176 0.879 0.195 0.293 0.645 0.293 0.371 0 0.645-0.215 0.293-0.195 0.469-0.518t0.293-0.713zM6.27 10.828q0.039 0 0.186 0.039t0.234 0.059l0.264 0.059t0.273 0.088 0.273 0.117 0.254 0.127 0.205 0.156 0.156 0.195 0.078 0.234-0.029 0.273q-0.039 0.195-0.166 0.322t-0.322 0.166-0.361 0.059-0.43-0.020-0.391-0.059-0.381-0.088-0.273-0.068z"/>
</svg>
