<?xml version="1.0" encoding="UTF-8" standalone="no"?>
<svg width="14px" height="14px" viewBox="0 0 14 14" version="1.1" xmlns="http://www.w3.org/2000/svg" xmlns:xlink="http://www.w3.org/1999/xlink">
    <!-- Generator: Sketch 3.6.1 (26313) - http://www.bohemiancoding.com/sketch -->
    <title>icon-dogecoin</title>
    <desc>Created with Sketch.</desc>
    <defs></defs>
    <g id="Page-1" stroke="none" stroke-width="1" fill="none" fill-rule="evenodd">
        <g id="icon-dogecoin" fill="#000000">
            <g id="Group">
                <path d="M7,0 C3.14,0 0,3.14 0,7 C0,10.86 3.14,14 7,14 C10.86,14 14,10.86 14,7 C14,3.14 10.86,0 7,0 L7,0 Z M10.24,8.52 C10.08,9.02 9.82,9.42 9.52,9.72 C9.28,9.96 8.96,10.14 8.56,10.26 C8.26,10.36 7.86,10.4 7.34,10.4 L4.76,10.4 L4.76,7.52 L3.56,7.52 L3.56,6.52 L4.76,6.52 L4.76,3.6 L7.26,3.6 C7.82,3.6 8.26,3.64 8.56,3.72 C8.96,3.84 9.3,4.04 9.58,4.34 C9.86,4.64 10.08,5 10.22,5.44 C10.36,5.88 10.44,6.4 10.44,7.04 C10.44,7.62 10.38,8.1 10.24,8.52 L10.24,8.52 Z" id="Shape"></path>
                <path d="M8.5,5.14 C8.34,4.98 8.12,4.88 7.86,4.82 C7.66,4.78 7.3,4.76 6.74,4.76 L6.12,4.76 L6.12,6.52 L7.28,6.52 L7.28,7.52 L6.12,7.52 L6.12,9.26 L7.14,9.26 C7.52,9.26 7.8,9.24 7.96,9.2 C8.18,9.14 8.36,9.06 8.52,8.92 C8.66,8.78 8.78,8.56 8.88,8.26 C8.98,7.96 9.02,7.54 9.02,7.02 C9.02,6.5 8.98,6.1 8.88,5.8 C8.8,5.52 8.66,5.3 8.5,5.14 L8.5,5.14 Z" id="Shape"></path>
            </g>
        </g>
    </g>
</svg>