<?xml version="1.0" encoding="utf-8"?>
<!-- Generator: Adobe Illustrator 19.0.1, SVG Export Plug-In . SVG Version: 6.00 Build 0)  -->
<svg version="1.1" id="Layer_1" xmlns="http://www.w3.org/2000/svg" xmlns:xlink="http://www.w3.org/1999/xlink" x="0px" y="0px"
	 viewBox="-382 297 46.8 20" style="enable-background:new -382 297 46.8 20;" xml:space="preserve">
<style type="text/css">
	.st0{fill:#444444;}
</style>
<g id="REAQyD.tif">
	<g>
		<g>
			<path class="st0" d="M-335.7,311.8c-0.3,0-0.6,0-0.9,0c-0.3-0.9-0.7-1.7-1-2.6c-1.3,0-2.5,0-3.8,0c-0.3,0.9-0.7,1.7-1,2.6
				c-2,0-4,0-6.1,0c0-2.9,0-8.5,0-8.5h0.8c0,0,0,5.1,0,7.7c1.6,0,3.1,0,4.7,0c1-2.6,3.1-7.8,3.1-7.8l0.9,0c0,0,0.3,0.7,0.5,1.1
				c0.9,2.3,1.8,4.7,2.7,7.1c0,0.1,0,0.2,0.1,0.2C-335.7,311.7-335.7,311.8-335.7,311.8z M-339.4,304.3c-0.6,1.4-1.2,2.7-1.7,4.2
				c1.1,0,2.1,0,3.2,0C-338.4,307-338.9,305.6-339.4,304.3z"/>
			<path class="st0" d="M-366.9,310.5c0.6-2.4,1.9-7.2,1.9-7.2h0.8c0,0-1.5,5.7-2.3,8.5c-0.3,0-0.6,0-0.9,0c-0.7-2.5-1.4-5-2.1-7.5
				c0,0-0.1,0-0.1,0c-0.7,2.5-1.4,5-2.1,7.4c-0.3,0.1-0.6,0-0.9,0c-0.8-2.8-2.3-8.5-2.3-8.5h0.9c0,0,1.2,4.8,1.9,7.2
				c0,0,0.1,0,0.1,0c0.7-2.4,1.3-4.8,2-7.2c0.4,0,0.7,0,1,0c0.7,2.4,1.3,4.8,2,7.2C-367,310.5-366.9,310.5-366.9,310.5z"/>
			<path class="st0" d="M-382,311.8c0-2.9,0-8.6,0-8.6l1.3,0c0,0,1.6,0,2.4,0.1c1.6,0.2,2.7,1.1,3.1,2.7c0.3,1.1,0.3,2.3,0,3.4
				c-0.4,1.5-1.4,2.2-2.9,2.4C-379.5,311.9-380.7,311.8-382,311.8z M-381.2,311.1c0.8,0,1.6,0.1,2.4,0c1.6-0.1,2.4-0.9,2.7-2.3
				c0.2-0.9,0.2-1.8-0.1-2.7c-0.2-0.9-0.8-1.5-1.7-1.8c-1.1-0.4-2.2-0.2-3.4-0.2C-381.2,306.4-381.2,308.7-381.2,311.1z"/>
			<path class="st0" d="M-364,307.6c0-1.1,0.2-2,0.8-2.9c1.5-2.3,5.5-2.3,6.7,0.5c0.7,1.5,0.7,3.1,0,4.6c-0.7,1.6-2,2.3-3.8,2.2
				c-1.6-0.1-2.8-0.9-3.4-2.4C-363.9,309-364,308.3-364,307.6z M-356.8,307.5c0-0.8-0.2-1.6-0.6-2.3c-1.1-1.7-3.7-1.9-4.9-0.3
				c-1.1,1.4-1.1,3.9-0.1,5.3c1.1,1.5,3.8,1.5,4.9-0.1C-357,309.3-356.8,308.5-356.8,307.5z"/>
			<path class="st0" d="M-354.1,311.1c1.6,0,3.2,0,4.7,0c0.2,0.2,0.1,0.4,0.1,0.7c-1.9,0-3.7,0-5.6,0c0-2.8,0-8.4,0-8.4h0.8
				C-354.1,303.4-354.1,308.5-354.1,311.1z"/>
		</g>
	</g>
</g>
</svg>
