<?xml version="1.0" encoding="utf-8"?>
<!-- Generated by IcoMoon.io -->
<!DOCTYPE svg PUBLIC "-//W3C//DTD SVG 1.1//EN" "http://www.w3.org/Graphics/SVG/1.1/DTD/svg11.dtd">
<svg version="1.1" xmlns="http://www.w3.org/2000/svg" xmlns:xlink="http://www.w3.org/1999/xlink" width="23" height="20" viewbox="0 0 23 20" class="icon">
<path fill="#444444" d="M17.602 11.263c-0.544 0-0.653 0.241-0.653 0.443 0 0.101 0.062 0.28 0.288 0.28 0.443 0 0.537-0.583 0.521-0.708-0.016 0-0.031-0.016-0.156-0.016zM11.217 10.276c-0.404 0-0.482 0.459-0.482 0.505h0.824c-0.008-0.039 0.070-0.505-0.342-0.505zM5.618 11.263c-0.544 0-0.653 0.241-0.653 0.443 0 0.101 0.062 0.28 0.288 0.28 0.443 0 0.537-0.583 0.521-0.708-0.016 0-0.031-0.016-0.156-0.016zM21.272 10.353c-0.327 0-0.583 0.381-0.583 0.949 0 0.35 0.124 0.575 0.389 0.575 0.404 0 0.591-0.521 0.591-0.91 0.008-0.428-0.132-0.614-0.397-0.614zM16.505 3.953c-1.688 0-3.235 0.622-4.425 1.641 0.879 0.832 1.54 1.882 1.905 3.064h-0.327c-0.358-1.096-0.988-2.076-1.812-2.854-0.824 0.778-1.454 1.75-1.812 2.854h-0.327c0.381-1.229 1.089-2.325 2.022-3.165-1.221-1.058-2.807-1.695-4.541-1.695-3.842 0-6.952 3.111-6.952 6.952s3.111 6.952 6.952 6.952c1.734 0 3.321-0.638 4.541-1.688-0.84-0.762-1.493-1.719-1.897-2.8h0.334c0.373 0.949 0.949 1.796 1.68 2.481 0.731-0.684 1.306-1.532 1.68-2.481h0.334c-0.381 1.034-0.995 1.952-1.781 2.691 1.19 1.019 2.737 1.641 4.425 1.641 3.748 0 6.797-3.048 6.797-6.797s-3.048-6.797-6.797-6.797zM3.168 12.554l0.42-2.652-0.949 2.652h-0.505l-0.062-2.652-0.451 2.652h-0.715l0.591-3.523h1.081l0.031 2.162 0.731-2.162h1.166l-0.583 3.523h-0.754zM5.696 12.554l0.023-0.28c-0.016 0-0.233 0.342-0.762 0.342-0.272 0-0.715-0.148-0.715-0.793 0-0.824 0.669-1.096 1.314-1.096 0.101 0 0.319 0.016 0.319 0.016s0.023-0.047 0.023-0.187c0-0.226-0.202-0.257-0.474-0.257-0.482 0-0.809 0.132-0.809 0.132l0.109-0.638c0 0 0.389-0.163 0.894-0.163 0.264 0 1.019 0.031 1.019 0.894l-0.288 2.037h-0.653zM8.441 11.652c0 0.98-0.949 0.941-1.12 0.941-0.622 0-0.809-0.086-0.832-0.093l0.101-0.645c0-0.008 0.311 0.109 0.653 0.109 0.202 0 0.459-0.016 0.459-0.257 0-0.358-0.925-0.272-0.925-1.12 0-0.747 0.552-0.964 1.104-0.964 0.42 0 0.684 0.054 0.684 0.054l-0.093 0.653c0 0-0.404-0.031-0.505-0.031-0.264 0-0.404 0.054-0.404 0.241 0 0.381 0.879 0.194 0.879 1.112zM9.522 10.392l-0.21 1.283c-0.016 0.101 0.016 0.241 0.272 0.241 0.062 0 0.14-0.023 0.187-0.023l-0.093 0.63c-0.078 0.023-0.288 0.093-0.552 0.093-0.342 0-0.591-0.194-0.591-0.63 0-0.296 0.42-2.706 0.436-2.722h0.739l-0.078 0.436h0.365l-0.093 0.692h-0.381zM11.318 11.963c0.373 0 0.785-0.179 0.785-0.179l-0.132 0.715c0 0-0.241 0.124-0.778 0.124-0.591 0-1.275-0.249-1.275-1.291 0-0.902 0.552-1.703 1.291-1.703 0.809 0 1.058 0.591 1.058 1.081 0 0.194-0.093 0.677-0.093 0.677h-1.509c0-0.016-0.14 0.575 0.653 0.575zM13.776 10.524c-0.513-0.179-0.552 0.809-0.77 2.037h-0.762l0.459-2.862h0.692l-0.062 0.412c0 0 0.249-0.451 0.575-0.451 0.093 0 0.14 0.008 0.14 0.008-0.093 0.202-0.187 0.381-0.272 0.855zM15.899 12.515c0 0-0.397 0.101-0.645 0.101-0.879 0-1.33-0.607-1.33-1.532 0-1.392 0.832-2.131 1.688-2.131 0.381 0 0.832 0.179 0.832 0.179l-0.124 0.785c0 0-0.303-0.21-0.677-0.21-0.505 0-0.956 0.482-0.956 1.353 0 0.428 0.21 0.832 0.731 0.832 0.249 0 0.614-0.179 0.614-0.179l-0.132 0.801zM17.679 12.554l0.023-0.28c-0.016 0-0.233 0.342-0.762 0.342-0.272 0-0.715-0.148-0.715-0.793 0-0.824 0.669-1.096 1.314-1.096 0.101 0 0.319 0.016 0.319 0.016s0.023-0.047 0.023-0.187c0-0.226-0.202-0.257-0.474-0.257-0.482 0-0.809 0.132-0.809 0.132l0.109-0.638c0 0 0.389-0.163 0.894-0.163 0.264 0 1.019 0.031 1.019 0.894l-0.288 2.037c-0.008-0.008-0.653-0.008-0.653-0.008zM19.211 12.562h-0.762l0.459-2.862h0.692l-0.062 0.412c0 0 0.249-0.451 0.575-0.451 0.093 0 0.14 0.008 0.14 0.008-0.101 0.202-0.187 0.381-0.272 0.855-0.513-0.179-0.552 0.817-0.77 2.037zM21.474 12.554l0.031-0.264c0 0-0.249 0.311-0.692 0.311-0.614 0-0.918-0.591-0.918-1.198 0-0.941 0.568-1.758 1.244-1.758 0.436 0 0.715 0.381 0.715 0.381l0.163-0.988h0.739l-0.568 3.515h-0.715zM22.859 12.539c-0.039 0.023-0.070 0.031-0.109 0.031s-0.078-0.008-0.109-0.031c-0.039-0.023-0.062-0.047-0.086-0.086s-0.031-0.070-0.031-0.109 0.008-0.078 0.031-0.109c0.023-0.039 0.047-0.062 0.086-0.086s0.070-0.031 0.109-0.031c0.039 0 0.078 0.008 0.109 0.031 0.039 0.016 0.062 0.047 0.086 0.086s0.031 0.070 0.031 0.109c0 0.039-0.008 0.078-0.031 0.109-0.023 0.039-0.054 0.070-0.086 0.086zM22.835 12.181c-0.031-0.016-0.062-0.023-0.093-0.023s-0.062 0.008-0.093 0.023c-0.031 0.016-0.054 0.039-0.070 0.070s-0.023 0.062-0.023 0.093 0.008 0.062 0.023 0.093c0.016 0.031 0.039 0.054 0.070 0.070s0.062 0.023 0.093 0.023c0.031 0 0.062-0.008 0.093-0.023s0.054-0.039 0.070-0.070 0.023-0.062 0.023-0.093-0.008-0.062-0.023-0.093c-0.016-0.031-0.039-0.054-0.070-0.070zM22.804 12.469l-0.023-0.039c-0.016-0.031-0.031-0.047-0.039-0.054s-0.016-0.008-0.031-0.008h-0.023v0.101h-0.039v-0.241h0.086c0.031 0 0.047 0 0.062 0.008s0.023 0.016 0.031 0.023c0.008 0.008 0.008 0.023 0.008 0.039s-0.008 0.031-0.016 0.047c-0.016 0.016-0.031 0.023-0.047 0.023 0.008 0 0.016 0.008 0.023 0.016s0.023 0.023 0.039 0.047l0.031 0.047h-0.062zM22.789 12.297c0-0.008 0-0.016-0.008-0.016-0.008-0.008-0.008-0.008-0.016-0.016-0.008 0-0.023-0.008-0.039-0.008h-0.047v0.070h0.047c0.023 0 0.039 0 0.047-0.008 0.016-0.008 0.016-0.016 0.016-0.023z"/>
</svg>
