<svg xmlns="http://www.w3.org/2000/svg" width="20" height="20" viewBox="0 0 20 20" class="icon"><path fill="#444" d="M9.958.811q1.903 0 3.635.744t2.988 2 2 2.988.744 3.635q0 2.537-1.256 4.696t-3.415 3.415-4.696 1.256q-1.39 0-2.659-.366.707-1.147.951-2.025l.659-2.561q.244.463.903.817t1.39.354q1.464 0 2.622-.842t1.793-2.305.634-3.293q0-2.171-1.671-3.769t-4.257-1.598q-1.586 0-2.903.537T5.298 5.897 4.066 7.775t-.427 2.037q0 1.268.476 2.22t1.427 1.342q.171.073.293.012t.171-.232q.171-.61.195-.756.098-.268-.122-.512-.634-.707-.634-1.83 0-1.854 1.281-3.183t3.354-1.329q1.83 0 2.854 1t1.025 2.61q0 1.342-.366 2.476t-1.049 1.817-1.561.683q-.732 0-1.195-.537t-.293-1.269q.098-.342.256-.878t.268-.915.207-.817.098-.732q0-.61-.317-1t-.927-.39q-.756 0-1.269.695t-.512 1.744q0 .39.061.756t.134.537l.073.171q-1 4.342-1.22 5.098-.195.927-.146 2.171-2.513-1.122-4.062-3.44T.59 10.177q0-3.879 2.744-6.623T9.957.81z"/></svg>