<?xml version="1.0" encoding="utf-8"?>
<!-- Generated by IcoMoon.io -->
<!DOCTYPE svg PUBLIC "-//W3C//DTD SVG 1.1//EN" "http://www.w3.org/Graphics/SVG/1.1/DTD/svg11.dtd">
<svg version="1.1" xmlns="http://www.w3.org/2000/svg" xmlns:xlink="http://www.w3.org/1999/xlink" width="32" height="20" viewBox="0 0 32 20" class="icon">
<path fill="#444444" d="M20.215 8.836q-1.484-0.781-3.066-0.898-1.66-0.137-2.598 0.615t-0.938 2.197 0.938 2.197 2.598 0.615q1.543-0.117 3.066-0.898v1.738q-1.641 0.41-3.223 0.488-1.563 0.059-2.783-0.137t-1.982-0.576-1.26-0.938-0.693-1.172-0.195-1.318q0-0.898 0.332-1.631t1.084-1.357 2.158-0.928 3.34-0.225q0.703 0.039 1.504 0.156t1.27 0.234l0.449 0.098v1.738zM5.723 6.844h3.516v4.727q0 3.34-5.059 3.34-1.035 0-2.080-0.127t-1.572-0.244l-0.527-0.137v-1.738q1.895 0.898 3.516 0.898 1.035 0 1.621-0.547t0.586-1.445v-4.727zM29.18 10.652q1.035 0.098 1.689 0.615t0.654 1.357q0 0.605-0.342 1.074t-0.928 0.713-1.328 0.244h-7.578v-7.813h7.422q0.996 0.039 1.631 0.547t0.635 1.367q0 0.703-0.488 1.221t-1.367 0.654v0.020zM24.59 10.027h2.148q0.195 0 0.234-0.020 0.352-0.059 0.586-0.322t0.234-0.654q0-0.371-0.234-0.635t-0.586-0.322q-0.078-0.039-0.234-0.039h-2.148v1.992zM26.953 13.387q0.215 0 0.254-0.020 0.371-0.059 0.605-0.342t0.234-0.693q0-0.273-0.107-0.498t-0.293-0.361-0.439-0.195l-0.254-0.020h-2.363v2.129h2.363z"/>
</svg>
