<?xml version="1.0" encoding="utf-8"?>
<!-- Generated by IcoMoon.io -->
<!DOCTYPE svg PUBLIC "-//W3C//DTD SVG 1.1//EN" "http://www.w3.org/Graphics/SVG/1.1/DTD/svg11.dtd">
<svg version="1.1" xmlns="http://www.w3.org/2000/svg" xmlns:xlink="http://www.w3.org/1999/xlink" width="20" height="20" viewBox="0 0 20 20" class="icon">
<path fill="#444444" d="M9.958 0.811q1.903 0 3.635 0.744t2.988 2 2 2.988 0.744 3.635q0 2.537-1.256 4.696t-3.415 3.415-4.696 1.256q-1.39 0-2.659-0.366 0.707-1.147 0.951-2.025l0.659-2.561q0.244 0.463 0.903 0.817t1.39 0.354q1.464 0 2.622-0.842t1.793-2.305 0.634-3.293q0-2.171-1.671-3.769t-4.257-1.598q-1.586 0-2.903 0.537t-2.122 1.403-1.232 1.878-0.427 2.037q0 1.268 0.476 2.22t1.427 1.342q0.171 0.073 0.293 0.012t0.171-0.232q0.171-0.61 0.195-0.756 0.098-0.268-0.122-0.512-0.634-0.707-0.634-1.83 0-1.854 1.281-3.183t3.354-1.329q1.83 0 2.854 1t1.025 2.61q0 1.342-0.366 2.476t-1.049 1.817-1.561 0.683q-0.732 0-1.195-0.537t-0.293-1.269q0.098-0.342 0.256-0.878t0.268-0.915 0.207-0.817 0.098-0.732q0-0.61-0.317-1t-0.927-0.39q-0.756 0-1.269 0.695t-0.512 1.744q0 0.39 0.061 0.756t0.134 0.537l0.073 0.171q-1 4.342-1.22 5.098-0.195 0.927-0.146 2.171-2.513-1.122-4.062-3.44t-1.549-5.147q0-3.879 2.744-6.623t6.623-2.744z"/>
</svg>
