<?xml version="1.0" encoding="utf-8"?>
<!-- Generated by IcoMoon.io -->
<!DOCTYPE svg PUBLIC "-//W3C//DTD SVG 1.1//EN" "http://www.w3.org/Graphics/SVG/1.1/DTD/svg11.dtd">
<svg version="1.1" xmlns="http://www.w3.org/2000/svg" xmlns:xlink="http://www.w3.org/1999/xlink" width="23" height="20" viewBox="0 0 23 20" class="icon">
<path fill="#444444" d="M13.984 8.621q-0.566-1.855-1.973-3.203 1.914-1.543 4.355-1.543 1.855 0 3.438 0.918t2.51 2.51 0.928 3.447-0.928 3.447-2.51 2.51-3.438 0.918q-2.441 0-4.355-1.543 1.406-1.348 1.973-3.203h-0.566q-0.547 1.621-1.797 2.852-1.27-1.211-1.816-2.852h-0.566q0.547 1.836 1.953 3.203-1.953 1.543-4.316 1.543-1.855 0-3.447-0.918t-2.51-2.51-0.918-3.447 0.918-3.447 2.51-2.51 3.447-0.918q2.363 0 4.316 1.543-1.406 1.367-1.953 3.203h0.566q0.547-1.641 1.816-2.852 1.25 1.23 1.797 2.852h0.566zM6.289 12.332l0.684-3.477h-1.367l-0.938 2.148-0.059-2.148h-1.328l-0.664 3.477h0.781l0.508-2.656 0.137 2.656h0.781l1.152-2.676-0.527 2.676h0.84zM15.859 11.668q-0.059 0.020-0.215 0.020-0.293 0-0.293-0.195 0-0.059 0.020-0.137l0.215-1.172h0.43l0.117-0.664h-0.43l0.117-0.664h-0.84l-0.41 2.148-0.020 0.234-0.039 0.273q-0.039 0.156-0.039 0.254 0 0.625 0.684 0.625 0.195 0 0.586-0.098zM9.297 10.828q0.078-0.41 0.078-0.566 0-0.195-0.068-0.352t-0.215-0.264-0.352-0.166-0.459-0.059-1.035 0.176l-0.117 0.625 0.078-0.020 0.137-0.039q0.352-0.078 0.684-0.078 0.547 0 0.547 0.273 0 0.020-0.010 0.078t-0.010 0.117q-0.137-0.039-0.352-0.039-0.723 0-1.113 0.293t-0.391 0.801q0 0.352 0.215 0.557t0.566 0.205q0.586 0 0.879-0.352v0.313h0.703v-0.078l0.020-0.117 0.020-0.137 0.039-0.176zM11.973 11.57q-0.41 0.156-0.898 0.156-0.723 0-0.723-0.488v-0.098h1.68q0.117-0.41 0.117-0.684 0-0.469-0.303-0.752t-0.85-0.283q-0.645 0-1.064 0.479t-0.42 1.201q0 1.27 1.445 1.27 0.488 0 0.879-0.098zM20.84 11.043q0.020-0.156 0.020-0.332 0-0.566-0.352-0.928t-0.996-0.361q-0.742 0-1.191 0.469t-0.449 1.211q0 1.289 1.328 1.289 1.445 0 1.641-1.348zM14.434 9.5q-0.645-0.059-0.762-0.059-0.449 0-0.742 0.137t-0.42 0.342-0.127 0.479q0 0.527 0.664 0.762 0.020 0.020 0.059 0.039 0.176 0.078 0.234 0.107t0.088 0.078 0.029 0.107q0 0.254-0.508 0.254-0.273 0-0.762-0.098l-0.117 0.645h0.039l0.156 0.039q0.020 0 0.098 0.010t0.137 0.010q0.117 0 0.273 0.010t0.195 0.010q1.328 0 1.328-0.938 0-0.547-0.625-0.801-0.273-0.117-0.332-0.156t-0.059-0.117q0-0.254 0.43-0.254 0.137 0 0.605 0.039zM16.875 12.332q0.215-1.289 0.371-1.67t0.469-0.381h0.098l0.098 0.059 0.313-0.801q-0.078-0.039-0.117-0.039h-0.156q-0.371 0-0.723 0.43l0.078-0.41h-0.781l-0.508 2.813h0.859zM10.43 10.574q0.137-0.508 0.566-0.508 0.391 0 0.391 0.371 0 0.039-0.010 0.078t-0.010 0.059h-0.938zM19.512 10.105q0.449 0 0.449 0.586 0 0.059-0.010 0.166t-0.010 0.146q-0.039 0.215-0.156 0.381t-0.254 0.244-0.234 0.078q-0.488 0-0.488-0.645 0-0.352 0.195-0.654t0.508-0.303zM7.539 11.492q0-0.449 0.723-0.449 0.020 0 0.068 0.010t0.107 0.010q0 0.215-0.078 0.371t-0.215 0.244-0.313 0.088q-0.293 0-0.293-0.273z"/>
</svg>
