<svg width="23" height="15" viewBox="0 0 23 15" xmlns="http://www.w3.org/2000/svg"><title>Shape</title><path d="M13.838 5.572a7.252 7.252 0 0 0-1.952-3.17c1.263-1.018 2.7-1.527 4.31-1.527 1.223 0 2.357.303 3.402.908a6.746 6.746 0 0 1 2.484 2.484A6.67 6.67 0 0 1 23 7.678c0 1.224-.305 2.361-.918 3.412a6.765 6.765 0 0 1-2.484 2.483 6.658 6.658 0 0 1-3.402.909c-1.61 0-3.047-.51-4.31-1.527a7.265 7.265 0 0 0 1.952-3.17h-.56a7.103 7.103 0 0 1-1.778 2.823 6.824 6.824 0 0 1-1.797-2.823h-.56a7.244 7.244 0 0 0 1.932 3.17c-1.288 1.018-2.712 1.527-4.27 1.527a6.712 6.712 0 0 1-3.412-.909A6.659 6.659 0 0 1 .91 11.09a6.712 6.712 0 0 1-.908-3.412c0-1.223.303-2.36.908-3.41a6.659 6.659 0 0 1 2.484-2.485A6.712 6.712 0 0 1 6.804.875c1.56 0 2.983.509 4.271 1.527a7.244 7.244 0 0 0-1.932 3.17h.56A6.838 6.838 0 0 1 11.5 2.749a7.094 7.094 0 0 1 1.778 2.823h.56zM6.224 9.244l.676-3.44H5.548l-.929 2.125-.058-2.126H3.247l-.657 3.44h.773l.502-2.627.136 2.628h.773l1.14-2.648-.522 2.648h.832zm9.47-.657a.764.764 0 0 1-.213.02c-.193 0-.29-.065-.29-.193 0-.04.007-.084.02-.136l.213-1.16h.425l.116-.657h-.425l.115-.657h-.831l-.406 2.126-.02.231-.038.27a1.086 1.086 0 0 0-.039.252c0 .412.226.618.677.618.129 0 .322-.032.58-.097l.116-.617zM9.2 7.756c.052-.27.077-.458.077-.56a.868.868 0 0 0-.067-.349.63.63 0 0 0-.213-.261 1.106 1.106 0 0 0-.348-.164 1.641 1.641 0 0 0-.454-.059c-.168 0-.51.058-1.024.174l-.116.619.077-.02.136-.038c.232-.052.457-.078.676-.078.361 0 .542.09.542.27a.565.565 0 0 1-.01.078.68.68 0 0 0-.01.115 1.303 1.303 0 0 0-.348-.038c-.477 0-.845.097-1.102.29a.94.94 0 0 0-.387.792c0 .233.071.416.213.552.142.135.329.203.56.203.387 0 .677-.117.87-.349v.31h.696v-.077l.02-.116.02-.136.038-.174.154-.984zm2.648.734a2.48 2.48 0 0 1-.888.154c-.477 0-.716-.16-.716-.483v-.097h1.663c.077-.27.116-.496.116-.677 0-.309-.1-.557-.3-.744-.2-.186-.48-.28-.841-.28-.426 0-.777.158-1.053.474-.277.316-.415.712-.416 1.189 0 .838.477 1.257 1.43 1.257.322 0 .612-.033.87-.097l.135-.696zm8.775-.522c.013-.103.02-.212.02-.328 0-.374-.116-.68-.349-.919-.232-.238-.56-.357-.985-.357-.49 0-.883.155-1.179.464-.296.31-.444.71-.444 1.199 0 .85.438 1.275 1.314 1.275.953 0 1.495-.444 1.624-1.334h-.001zm-6.34-1.527a14.072 14.072 0 0 0-.753-.058c-.297 0-.541.045-.735.136a.935.935 0 0 0-.415.338.882.882 0 0 0-.126.474c0 .348.22.6.657.754a.218.218 0 0 0 .059.039c.116.051.193.086.231.106.038.019.067.044.087.077.02.032.03.067.029.106 0 .167-.168.251-.503.251-.18 0-.431-.032-.754-.097l-.116.638h.039l.154.039c.013 0 .046.003.097.01.052.006.097.01.136.01.077 0 .167.003.27.01.103.006.167.01.193.01.876 0 1.314-.31 1.314-.929 0-.36-.206-.625-.618-.792a2.953 2.953 0 0 1-.329-.155.13.13 0 0 1-.058-.116c0-.167.142-.25.425-.25.09 0 .29.012.599.038l.118-.639zM16.7 9.244c.142-.85.265-1.401.367-1.653.103-.251.258-.377.465-.377h.097l.097.059.31-.793a.296.296 0 0 0-.117-.039h-.154c-.245 0-.483.142-.715.426l.077-.406h-.773l-.503 2.784h.85v-.001zm-6.378-1.74c.09-.335.277-.502.56-.502.258 0 .387.122.387.367a.31.31 0 0 1-.01.077.258.258 0 0 0-.01.058h-.928.001zm8.988-.464c.296 0 .444.193.444.58 0 .039-.003.094-.01.164a1.88 1.88 0 0 0-.01.145.935.935 0 0 1-.154.377.8.8 0 0 1-.251.241.49.49 0 0 1-.232.077c-.322 0-.483-.212-.483-.638 0-.232.064-.448.193-.647.129-.2.296-.3.503-.3v.001zM7.46 8.413c0-.297.238-.445.715-.445.013 0 .036.004.067.01a.52.52 0 0 0 .106.01.812.812 0 0 1-.077.367.56.56 0 0 1-.523.329c-.193 0-.29-.09-.29-.27l.002-.001z" fill="#444" fill-rule="evenodd"/></svg>