<?xml version="1.0" encoding="utf-8"?>
<!-- Generated by IcoMoon.io -->
<!DOCTYPE svg PUBLIC "-//W3C//DTD SVG 1.1//EN" "http://www.w3.org/Graphics/SVG/1.1/DTD/svg11.dtd">
<svg version="1.1" xmlns="http://www.w3.org/2000/svg" xmlns:xlink="http://www.w3.org/1999/xlink" width="20" height="20" viewBox="0 0 20 20" class="icon">
<path fill="#444444" d="M19.551 4.208q-0.815 1.202-1.956 2.038 0 0.082 0.020 0.255t0.020 0.255q0 1.589-0.469 3.179t-1.426 3.036-2.272 2.567-3.158 1.793-3.963 0.672q-3.301 0-6.031-1.773 0.571 0.041 0.937 0.041 2.751 0 4.911-1.671-1.284-0.020-2.292-0.784t-1.416-1.966q0.346 0.082 0.754 0.082 0.55 0 1.039-0.163-1.365-0.285-2.262-1.365t-0.897-2.486v-0.041q0.774 0.408 1.773 0.448-0.795-0.53-1.263-1.396t-0.469-1.864q0-1.019 0.509-1.997 1.487 1.854 3.596 2.924t4.574 1.192q-0.143-0.509-0.143-0.897 0-1.63 1.161-2.781t2.832-1.151q0.815 0 1.569 0.326t1.284 0.917q1.345-0.265 2.506-0.958-0.428 1.386-1.732 2.18 1.243-0.163 2.262-0.611z"/>
</svg>
