<?xml version="1.0" encoding="utf-8"?>
<!-- Generated by IcoMoon.io -->
<!DOCTYPE svg PUBLIC "-//W3C//DTD SVG 1.1//EN" "http://www.w3.org/Graphics/SVG/1.1/DTD/svg11.dtd">
<svg version="1.1" xmlns="http://www.w3.org/2000/svg" xmlns:xlink="http://www.w3.org/1999/xlink" width="36" height="20" viewBox="0 0 36 20" class="icon">
<path fill="#444444" d="M33.691 7.141h2.012l-1.66 7.5h-1.992zM5.332 7.16q0.918 0 1.553 0.674t0.381 1.865q-0.234 1.152-1.064 1.807t-1.963 0.654h-1.543l-0.547 2.48h-2.148l1.641-7.48h3.691zM24.473 7.16q0.918 0 1.563 0.674t0.391 1.865q-0.156 0.762-0.596 1.328t-1.074 0.85-1.396 0.283h-1.523l-0.527 2.48h-2.148l1.641-7.48h3.672zM8.027 9.055q0.098-0.020 0.42-0.098t0.537-0.127 0.566-0.098 0.684-0.049q0.547-0.020 1.025 0.078t0.879 0.313 0.566 0.645 0.029 1.016l-0.82 3.906h-1.973l0.137-0.586q-0.41 0.41-1.035 0.586t-1.182 0.088-0.889-0.615-0.176-1.387q0.215-1.016 1.221-1.455t2.744-0.439q0.059-0.293-0.059-0.469t-0.352-0.244-0.625-0.049q-0.508 0.020-1.094 0.156t-0.781 0.254zM27.207 9.055q0.117-0.020 0.342-0.078t0.42-0.107 0.439-0.088 0.508-0.068 0.537-0.029q0.566-0.020 1.045 0.078t0.879 0.313 0.576 0.645 0.039 1.016l-0.84 3.906h-1.992l0.137-0.586q-0.41 0.41-1.045 0.586t-1.201 0.088-0.898-0.615-0.176-1.387q0.137-0.703 0.684-1.123t1.348-0.596 1.973-0.176q0.098-0.449-0.166-0.615t-0.869-0.146q-0.352 0-0.762 0.078t-0.713 0.166-0.459 0.166zM4.004 10.734q0.273 0 0.537-0.137t0.449-0.371 0.244-0.527q0.117-0.43-0.098-0.723t-0.625-0.293h-1.035l-0.469 2.051h0.996zM23.164 10.734q0.41 0 0.781-0.303t0.469-0.732-0.127-0.723-0.615-0.293h-1.094l-0.43 2.051h1.016zM13.633 8.801l0.801 5.879-1.445 2.461h2.207l4.688-8.34h-2.031l-1.953 3.477-0.313-3.477h-1.953zM10.391 12.688q0-0.195 0.098-0.527h-0.508q-0.918 0-1.172 0.488-0.195 0.352-0.010 0.586t0.537 0.234q0.859-0.039 1.055-0.781zM29.59 12.688q0.039-0.332 0.117-0.527h-0.488q-0.977 0-1.191 0.488-0.195 0.352-0.010 0.586t0.537 0.234q0.879-0.039 1.035-0.781z"/>
</svg>
