<?xml version="1.0" encoding="utf-8"?>
<!-- Generated by IcoMoon.io -->
<!DOCTYPE svg PUBLIC "-//W3C//DTD SVG 1.1//EN" "http://www.w3.org/Graphics/SVG/1.1/DTD/svg11.dtd">
<svg version="1.1" xmlns="http://www.w3.org/2000/svg" xmlns:xlink="http://www.w3.org/1999/xlink" width="28" height="20" viewBox="0 0 28 20" class="icon">
<path fill="#444444" d="M14.375 7.313q0.469 0 0.781-0.322t0.313-0.771-0.313-0.771-0.781-0.322q-0.293 0-0.547 0.146t-0.391 0.4-0.137 0.547q0 0.449 0.313 0.771t0.762 0.322zM8.574 12.547q-0.039 0-0.166 0.020t-0.234 0.039-0.225 0.029-0.156 0.010q-0.195 0-0.283-0.107t-0.088-0.4v-2.695h0.879l0.273-1.387h-1.152v-1.836l-1.895 0.469-0.293 1.367h-0.82v1.387h0.82v3.105q0 0.352 0.068 0.625t0.176 0.459 0.264 0.313 0.303 0.195 0.342 0.107 0.322 0.049 0.303 0.010q0.781 0 1.563-0.195v-1.563zM2.676 10.32q-0.254-0.117-0.332-0.156t-0.146-0.127-0.068-0.205q0-0.313 0.469-0.313 0.645 0 1.367 0.254v-1.543q-0.762-0.273-1.602-0.273-0.449 0-0.84 0.088t-0.752 0.293-0.566 0.615-0.205 0.996q0 1.191 1.25 1.777l0.273 0.137q0.293 0.117 0.41 0.215t0.117 0.254q0 0.371-0.605 0.371-0.488 0-1.367-0.293v1.602q0.996 0.293 1.777 0.293 2.344 0 2.344-2.090 0-0.41-0.117-0.723t-0.332-0.518-0.4-0.313-0.439-0.225zM11.23 9.988q0.391-0.195 0.723-0.195 0.41 0 0.801 0.117v-1.836q-0.156-0.117-0.664-0.117-0.781 0-0.977 0.703l-0.332-0.605h-1.738v6.133h2.188v-4.199zM18.594 14.168q0.508 0.137 0.781 0.137 0.234 0 0.391-0.010t0.43-0.078 0.459-0.186 0.41-0.352 0.361-0.566 0.234-0.859 0.098-1.172q0-0.84-0.127-1.436t-0.303-0.918-0.459-0.498-0.518-0.225-0.547-0.049q-0.762 0-1.309 0.508l-0.313-0.41h-1.777v8.32h2.188v-2.207zM27.48 11.863v-0.723q0-1.738-0.635-2.461t-1.787-0.723q-2.715 0-2.715 3.184 0 0.84 0.195 1.455t0.469 0.938 0.723 0.508 0.801 0.225 0.859 0.039q0.918 0 1.797-0.313v-1.602q-1.445 0.254-1.797 0.254-0.293 0-0.469-0.049t-0.283-0.234-0.107-0.498h2.949zM15.488 14.188v-6.133h-2.188v6.133h2.188zM24.531 10.672v-0.234t0.010-0.234 0.010-0.215 0.020-0.205 0.039-0.166 0.059-0.146 0.098-0.107 0.127-0.078 0.166-0.020q0.137 0 0.225 0.088t0.117 0.322 0.039 0.42 0.010 0.576h-0.918zM18.594 9.754q0.273-0.195 0.508-0.195 0.293 0 0.391 0.273t0.098 1.25q0 0.957-0.156 1.318t-0.469 0.361q-0.195 0-0.371-0.059v-2.949z"/>
</svg>
