<?xml version="1.0" encoding="utf-8"?>
<!-- Generated by IcoMoon.io -->
<!DOCTYPE svg PUBLIC "-//W3C//DTD SVG 1.1//EN" "http://www.w3.org/Graphics/SVG/1.1/DTD/svg11.dtd">
<svg version="1.1" xmlns="http://www.w3.org/2000/svg" xmlns:xlink="http://www.w3.org/1999/xlink" width="52" height="20" viewBox="0 0 52 20" class="icon">
<path fill="#444444" d="M22.598 14.617q-1.094 0.488-2.031 0.488-1.855 0-3.125-1.26t-1.27-3.115q0-1.797 1.299-3.076t3.135-1.279q1.035 0 1.992 0.508v1.914q-0.957-0.938-2.031-0.938-1.152 0-1.943 0.84t-0.791 2.031q0 1.27 0.791 2.070t2.021 0.801q1.055 0 1.953-0.898v1.914zM14.512 8.465q-0.586-0.664-1.328-0.664-0.527 0-0.869 0.264t-0.342 0.654q0 0.332 0.264 0.557t0.986 0.479q1.406 0.508 1.914 1.064t0.508 1.553q0 1.211-0.811 1.973t-2.080 0.762q-1.816 0-2.891-1.582l1.055-1.016q0.586 1.113 1.777 1.113 0.547 0 0.908-0.332t0.361-0.84q0-0.527-0.488-0.859-0.273-0.176-1.133-0.469-1.133-0.43-1.592-0.938t-0.459-1.387q0-1.016 0.752-1.699t1.846-0.684q1.387 0 2.461 0.957zM27.676 6.414q1.875 0 3.154 1.26t1.279 3.076-1.289 3.086-3.145 1.27q-1.914 0-3.193-1.25t-1.279-3.145q0-1.797 1.309-3.047t3.164-1.25zM2.383 6.551q1.973 0 3.232 1.172t1.26 3.008q0 0.918-0.391 1.768t-1.113 1.455q-1.211 0.977-2.988 0.977h-2.383v-8.379h2.383zM7.617 6.551h1.641v8.379h-1.641v-8.379zM38.047 6.551h1.777l-3.633 8.574h-0.859l-3.535-8.574h1.758l2.227 5.625zM40.547 6.551h4.629v1.426h-2.988v1.855h2.871v1.406h-2.871v2.266h2.988v1.426h-4.629v-8.379zM48.672 6.551q1.406 0 2.168 0.645t0.762 1.836q0 0.957-0.479 1.563t-1.396 0.801l2.617 3.535h-1.992l-2.266-3.398h-0.195v3.398h-1.641v-8.379h2.422zM48.359 10.398q1.582 0 1.582-1.289 0-1.23-1.582-1.23h-0.469v2.52h0.469zM2.090 13.504q1.484 0 2.207-0.664 0.43-0.391 0.674-0.947t0.244-1.162q0-1.27-0.918-2.070-0.742-0.684-2.207-0.684h-0.449v5.527h0.449z"/>
</svg>
