<?xml version="1.0" encoding="utf-8"?>
<!-- Generator: Adobe Illustrator 19.0.1, SVG Export Plug-In . SVG Version: 6.00 Build 0)  -->
<svg version="1.1" id="Layer_1" xmlns="http://www.w3.org/2000/svg" xmlns:xlink="http://www.w3.org/1999/xlink" x="0px" y="0px"
	 viewBox="-316 229 158 156" style="enable-background:new -316 229 158 156;" xml:space="preserve">
<style type="text/css">
	.st0{fill:#222222;}
</style>
<g id="TM3wMc.tif">
	<g>
		<g>
			<path class="st0" d="M-258.8,371.6c3-0.8,5.7-2,8.2-3.7c7.5-5,12.2-11.9,14.4-20.5c1.2-4.7,1.8-9.4,1.7-14.3
				c-0.2-5.1-0.1-10.2,0-15.4c0-2.4,0.1-2.5,2.4-2.5c5.4,0,10.8,0,16.2,0c0.8,0,1.6,0,2.4,0c2-0.1,2.3-0.3,2.4-2.4
				c0.1-5.5,0.1-11,0-16.6c0-2.5-0.2-2.8-2.8-2.8c-5.9,0-11.9,0-17.8,0c-2.9,0-3,0-2.8-2.9c0.3-6.1,2.9-10.8,8.7-13.3
				c2.5-1,5-1.9,7.8-1.8c0.3,0,0.5,0,0.8,0c6.1-0.4,6.1-0.4,6.1-6.5c0-7.1,0-14.2,0-21.1c1-0.9,1.7-0.5,2.5-0.2
				c12.1,4.2,20.1,12.5,24.4,24.4c2.9,7.9,4.4,16.2,4.8,24.6c0.3,7.3,0.5,14.6,0,21.8c-0.7,10.3-2.8,20.3-7.8,29.5
				c-5.1,9.3-12.6,15.8-22.4,19.8c-8.5,3.4-17.4,5-26.6,4.8c-6.6-0.1-13.2,0-19.8-0.1C-257,372.6-258,373-258.8,371.6z"/>
			<path class="st0" d="M-228.1,244.1c-0.1,0.7-0.7,0.6-1.2,0.7c-8.4,0.3-14.9,4.2-21,9.6c-5.8,5.2-8.1,11.7-9.2,19
				c-0.8,5.3-1.6,10.6-1.7,15.9c0,0.4,0,0.8-0.1,1.2c-0.5,2.9-0.5,2.9-3.5,2.9c-11.4,0-22.9,0-34.3,0c-0.7,0-1.3,0.2-2.1-0.4
				c0.6-7.7,1.6-15.3,4.3-22.8c4.3-12,12.5-19.5,24.6-23.2c5.7-1.7,11.4-2.4,17.2-3.1c8.7-1.1,17.4-0.4,26.1-0.5
				C-228.6,243.5-228.2,243.6-228.1,244.1z"/>
			<path class="st0" d="M-277,368.7c-9.6-3.2-16.1-9.6-19.6-19c-2.3-6.1-3.7-12.5-4.2-19.1c-0.3-4.4-0.6-8.8-0.8-13.2
				c-0.1-1.5,0.3-2.2,2-2.2c12,0.1,23.9,0,35.9,0c1.5,0,2.1,0.4,2.1,2c-0.1,5.4-0.1,10.8,0,16.1c0,1.6-0.7,2.8-1.6,4
				c-3,4.2-6.8,7-12,7.8c-1.4,0.2-1.2,1.2-1.2,2.1c0,6.2,0,12.4,0,18.6C-276.6,366.7-276.2,367.7-277,368.7z"/>
		</g>
	</g>
</g>
</svg>
