<?xml version="1.0" encoding="utf-8"?>
<!-- Generated by IcoMoon.io -->
<!DOCTYPE svg PUBLIC "-//W3C//DTD SVG 1.1//EN" "http://www.w3.org/Graphics/SVG/1.1/DTD/svg11.dtd">
<svg version="1.1" xmlns="http://www.w3.org/2000/svg" xmlns:xlink="http://www.w3.org/1999/xlink" width="32" height="20" viewBox="0 0 32 20" class="icon">
<path fill="#444444" d="M6.211 12.131c-0.164 0-0.308 0.019-0.466 0.069v2.014c0.157 0.076 0.283 0.107 0.453 0.107 0.611 0 0.976-0.422 0.976-1.121 0-0.674-0.359-1.070-0.963-1.070z"/>
<path fill="#444444" d="M18.537 12.131c-0.378 0-0.655 0.327-0.686 0.799h1.316c-0.025-0.409-0.227-0.799-0.63-0.799z"/>
<path fill="#444444" d="M8.578 13.415c-0.151 0.076-0.233 0.22-0.233 0.403 0 0.308 0.189 0.504 0.485 0.504 0.334 0 0.585-0.22 0.749-0.39v-0.642l-0.466 0.013c-0.239 0.013-0.403 0.044-0.535 0.113z"/>
<path fill="#444444" d="M8.351 6.516c-0.409 0-0.85 0.088-0.85 0.573 0 0.246 0.126 0.415 0.346 0.415 0.157 0 0.302-0.101 0.397-0.258 0.113-0.195 0.107-0.384 0.107-0.604v-0.126z"/>
<path fill="#444444" d="M21.030 5.445c-0.422 0-0.447 0.573-0.447 0.932s-0.006 1.121 0.441 1.121c0.441 0 0.466-0.617 0.466-0.995 0-0.246-0.013-0.541-0.088-0.774-0.063-0.201-0.195-0.283-0.371-0.283z"/>
<path fill="#444444" d="M14.974 7.095c0 0.246 0.126 0.415 0.346 0.415 0.157 0 0.302-0.101 0.397-0.258 0.113-0.195 0.107-0.384 0.107-0.604v-0.126c-0.409-0.006-0.85 0.082-0.85 0.573z"/>
<path fill="#444444" d="M27.098 1.813h-22.285c-1.058 0-1.92 0.963-1.92 2.147v12.074c0 1.19 0.862 2.147 1.92 2.147h22.285c1.058 0 1.92-0.963 1.92-2.147v-12.074c0-1.183-0.856-2.147-1.92-2.147zM17.215 7.435c0-0.069 0-0.183 0.069-0.29l1.127-1.612h-0.982c-0.057 0-0.107-0.044-0.107-0.107v-0.415c0-0.063 0.050-0.107 0.107-0.107h1.876c0.057 0 0.107 0.044 0.107 0.107v0.359c0 0.057-0.050 0.139-0.139 0.264l-0.969 1.385c0.359-0.006 0.743 0.044 1.070 0.227 0.076 0.044 0.094 0.101 0.101 0.164v0.447c0 0.063-0.069 0.132-0.139 0.094-0.579-0.302-1.341-0.334-1.983 0.006-0.063 0.032-0.132-0.038-0.132-0.094v-0.428zM17.271 8.467c0.611-0.428 1.618-0.308 1.731-0.164 0.12 0.145-0.032 1.152-0.604 1.63-0.088 0.076-0.17 0.032-0.132-0.063 0.132-0.321 0.422-1.045 0.283-1.221s-0.906-0.082-1.253-0.044c-0.107 0.019-0.12-0.076-0.025-0.139zM15.754 5.571c-0.069-0.107-0.201-0.151-0.321-0.151-0.22 0-0.409 0.113-0.46 0.346-0.013 0.050-0.050 0.101-0.101 0.107l-0.554-0.057c-0.044-0.013-0.101-0.050-0.088-0.12 0.126-0.674 0.73-0.875 1.278-0.875 0.277 0 0.642 0.076 0.856 0.283 0.277 0.258 0.252 0.604 0.252 0.982v0.888c0 0.264 0.113 0.384 0.214 0.529 0.038 0.050 0.044 0.113 0 0.151-0.12 0.101-0.321 0.277-0.441 0.378v0c-0.038 0.032-0.094 0.038-0.132 0.013-0.189-0.157-0.22-0.233-0.327-0.378-0.315 0.321-0.535 0.415-0.938 0.415-0.478 0-0.856-0.296-0.856-0.888 0-0.466 0.252-0.781 0.611-0.932 0.308-0.139 0.743-0.164 1.070-0.195v-0.076c0.006-0.145 0.019-0.302-0.063-0.422zM9.812 5.017c0-0.057 0.050-0.107 0.107-0.107h0.529c0.057 0 0.101 0.044 0.107 0.101v0.384h0.013c0.139-0.371 0.397-0.541 0.749-0.541 0.359 0 0.579 0.17 0.737 0.541 0.139-0.371 0.453-0.541 0.787-0.541 0.239 0 0.504 0.101 0.661 0.321 0.183 0.246 0.145 0.604 0.145 0.919v1.844c0 0.057-0.050 0.107-0.113 0.107h-0.567c-0.057-0.006-0.101-0.050-0.101-0.107v-1.555c0-0.126 0.013-0.428-0.013-0.548-0.044-0.195-0.17-0.252-0.334-0.252-0.139 0-0.283 0.094-0.34 0.239s-0.050 0.397-0.050 0.56v1.549c0 0.057-0.050 0.107-0.107 0.107h-0.573c-0.057-0.006-0.101-0.050-0.101-0.107v-1.549c0-0.327 0.050-0.806-0.352-0.806-0.409 0-0.397 0.466-0.397 0.806v1.549c0 0.057-0.050 0.107-0.107 0.107h-0.573c-0.057-0.006-0.101-0.044-0.101-0.094v-2.927zM14.256 9.67c1.19 0 2.493-0.246 3.689-0.755 0.183-0.076 0.334 0.12 0.157 0.252-1.070 0.787-2.625 1.209-3.96 1.209-1.876 0-3.563-0.692-4.835-1.844-0.101-0.088-0.013-0.214 0.107-0.145 1.379 0.799 3.078 1.284 4.841 1.284zM8.282 5.571c-0.069-0.107-0.201-0.151-0.321-0.151-0.22 0-0.409 0.113-0.46 0.346-0.006 0.050-0.044 0.101-0.101 0.107l-0.554-0.057c-0.044-0.013-0.101-0.050-0.088-0.12 0.126-0.674 0.73-0.875 1.278-0.875 0.277 0 0.642 0.076 0.856 0.283 0.277 0.258 0.252 0.604 0.252 0.982v0.888c0 0.264 0.113 0.384 0.214 0.529 0.038 0.050 0.044 0.113 0 0.151-0.12 0.101-0.321 0.277-0.441 0.378v0c-0.038 0.032-0.094 0.038-0.132 0.013-0.189-0.157-0.22-0.233-0.327-0.378-0.315 0.321-0.535 0.415-0.938 0.415-0.478 0-0.856-0.296-0.856-0.888 0-0.466 0.252-0.781 0.611-0.932 0.308-0.139 0.743-0.164 1.070-0.195v-0.076c0.006-0.145 0.013-0.302-0.063-0.422zM6.198 14.731c-0.151 0-0.308-0.032-0.453-0.082v1.335c0 0.038-0.032 0.063-0.063 0.063h-0.308c-0.038 0-0.063-0.032-0.063-0.063v-4.029c0-0.025 0.019-0.050 0.038-0.057 0.277-0.107 0.585-0.164 0.862-0.164 0.881 0 1.41 0.554 1.41 1.486 0.006 0.888-0.579 1.511-1.423 1.511zM9.717 14.674c-0.032 0-0.057-0.019-0.063-0.050l-0.044-0.22c-0.246 0.22-0.516 0.327-0.799 0.327-0.541 0-0.919-0.371-0.919-0.9 0-0.365 0.176-0.648 0.504-0.799 0.195-0.088 0.409-0.113 0.699-0.126l0.491-0.013v-0.145c0-0.39-0.195-0.604-0.554-0.604-0.334 0-0.541 0.107-0.737 0.227-0.013 0.013-0.032 0.013-0.050 0.006s-0.032-0.013-0.038-0.032l-0.132-0.239c-0.019-0.032-0.006-0.069 0.019-0.088 0.365-0.239 0.718-0.29 0.951-0.29 0.623 0 0.982 0.352 0.982 0.969v0.869c0 0.56 0.019 0.875 0.057 1.020 0.006 0.019 0 0.038-0.013 0.057-0.013 0.013-0.032 0.025-0.050 0.025h-0.302zM12.758 11.879l-1.014 3.015c-0.346 1.014-0.787 1.152-1.209 1.152-0.183 0-0.308-0.025-0.453-0.082-0.032-0.013-0.044-0.044-0.038-0.076l0.069-0.271c0.006-0.019 0.019-0.032 0.032-0.044 0.019-0.006 0.038-0.006 0.050 0 0.107 0.044 0.22 0.063 0.34 0.063 0.384 0 0.655-0.315 0.85-0.995l-1.196-2.757c-0.006-0.019-0.006-0.044 0.006-0.063s0.032-0.032 0.050-0.032h0.353c0.025 0 0.050 0.013 0.057 0.038l0.932 2.191 0.711-2.184c0.006-0.025 0.032-0.044 0.063-0.044h0.334c0.019 0 0.038 0.013 0.050 0.025 0.013 0.025 0.019 0.044 0.013 0.063zM16.963 14.605c0 0.038-0.032 0.063-0.063 0.063h-0.308c-0.038 0-0.063-0.032-0.063-0.063v-1.75c0-0.504-0.132-0.711-0.447-0.711-0.321 0-0.623 0.227-0.856 0.434 0.006 0.057 0.006 0.113 0.006 0.17v1.863c0 0.038-0.032 0.063-0.063 0.063h-0.308c-0.038 0-0.063-0.032-0.063-0.063v-1.75c0-0.504-0.132-0.711-0.447-0.711s-0.598 0.208-0.856 0.434v2.033c0 0.038-0.032 0.063-0.063 0.063h-0.308c-0.038 0-0.063-0.032-0.063-0.063v-2.745c0-0.038 0.032-0.063 0.063-0.063h0.258c0.032 0 0.057 0.025 0.063 0.057l0.032 0.258c0.321-0.258 0.617-0.378 0.919-0.378 0.327 0 0.585 0.164 0.724 0.447 0.346-0.296 0.686-0.447 1.007-0.447 0.403 0 0.837 0.264 0.837 1.014v1.844zM19.638 13.258c0 0.038-0.032 0.063-0.063 0.063h-1.725c0.025 0.472 0.271 1.001 0.906 1.001 0.264 0 0.491-0.094 0.636-0.176 0.013-0.006 0.032-0.013 0.050-0.006s0.032 0.019 0.038 0.032l0.107 0.227c0.013 0.032 0.006 0.063-0.025 0.082-0.227 0.151-0.567 0.252-0.869 0.252-0.793 0-1.303-0.604-1.303-1.542 0-0.856 0.472-1.454 1.146-1.454 0.68 0 1.102 0.554 1.102 1.454v0.069zM22.308 14.605c0 0.038-0.032 0.063-0.063 0.063h-0.308c-0.038 0-0.063-0.032-0.063-0.063v-1.75c0-0.642-0.264-0.711-0.466-0.711-0.315 0-0.598 0.208-0.856 0.434v2.033c0 0.038-0.032 0.063-0.063 0.063h-0.308c-0.038 0-0.063-0.032-0.063-0.063v-2.745c0-0.038 0.032-0.063 0.063-0.063h0.258c0.032 0 0.057 0.025 0.063 0.057l0.032 0.258c0.321-0.258 0.617-0.378 0.919-0.378 0.415 0 0.856 0.264 0.856 1.014v1.851zM21.023 8.102c-0.831 0-1.284-0.73-1.284-1.63 0-0.913 0.46-1.618 1.284-1.618 0.844 0 1.303 0.724 1.303 1.649 0 0.888-0.504 1.599-1.303 1.599zM24.372 14.473c-0.157 0.12-0.409 0.258-0.68 0.258-0.39 0-0.604-0.233-0.604-0.661v-1.876h-0.384c-0.038 0-0.063-0.032-0.063-0.063v-0.264c0-0.038 0.032-0.063 0.063-0.063h0.384v-0.554c0-0.025 0.019-0.050 0.044-0.063l0.308-0.107c0.019-0.006 0.044-0.006 0.057 0.006 0.019 0.013 0.025 0.032 0.025 0.050v0.661h0.749c0.019 0 0.044 0.013 0.050 0.025 0.013 0.019 0.013 0.038 0.006 0.057l-0.107 0.264c-0.013 0.025-0.032 0.038-0.063 0.038h-0.642v1.851c0 0.252 0.126 0.277 0.227 0.277 0.164 0 0.327-0.094 0.447-0.183 0.013-0.013 0.038-0.013 0.050-0.006 0.019 0.006 0.032 0.019 0.044 0.038l0.107 0.227c0.013 0.038 0 0.069-0.019 0.088zM24.309 7.945v-1.586c0-0.321 0.038-0.787-0.359-0.787-0.139 0-0.264 0.094-0.327 0.233-0.082 0.176-0.088 0.359-0.088 0.554v1.574c0 0.057-0.050 0.107-0.113 0.107h-0.567c-0.057-0.006-0.101-0.050-0.101-0.107v-2.927c0.006-0.050 0.050-0.094 0.107-0.094h0.529c0.050 0 0.088 0.038 0.101 0.082v0.447h0.013c0.157-0.403 0.384-0.592 0.774-0.592 0.258 0 0.504 0.094 0.667 0.346 0.151 0.233 0.151 0.63 0.151 0.913v1.844c-0.006 0.050-0.050 0.094-0.107 0.094h-0.573c-0.057-0.013-0.101-0.050-0.107-0.101zM25.417 14.731c-0.371 0-0.648-0.145-0.781-0.233-0.025-0.019-0.038-0.050-0.025-0.076l0.107-0.252c0.006-0.019 0.019-0.032 0.038-0.038s0.038-0.006 0.050 0.006c0.126 0.076 0.315 0.183 0.63 0.183 0.17 0 0.567-0.044 0.567-0.434 0-0.264-0.239-0.371-0.523-0.497l-0.050-0.025c-0.315-0.145-0.711-0.321-0.711-0.85 0-0.39 0.29-0.787 0.938-0.787 0.277 0 0.51 0.069 0.655 0.132 0.025 0.013 0.038 0.032 0.038 0.057v0.283c0 0.019-0.013 0.044-0.032 0.050-0.019 0.013-0.044 0.013-0.063 0.006-0.145-0.069-0.334-0.132-0.592-0.132-0.346 0-0.523 0.12-0.523 0.359 0 0.246 0.208 0.359 0.523 0.504l0.038 0.019c0.195 0.088 0.39 0.183 0.535 0.334 0.132 0.139 0.195 0.315 0.195 0.535 0.019 0.523-0.384 0.856-1.014 0.856z"/>
</svg>
