<?xml version="1.0" encoding="utf-8"?>
<!-- Generated by IcoMoon.io -->
<!DOCTYPE svg PUBLIC "-//W3C//DTD SVG 1.1//EN" "http://www.w3.org/Graphics/SVG/1.1/DTD/svg11.dtd">
<svg version="1.1" xmlns="http://www.w3.org/2000/svg" xmlns:xlink="http://www.w3.org/1999/xlink" width="50" height="30" viewBox="0 0 50 30">
<path fill="#444444" d="M17.828 14.171v4.389h7.259c-0.293 1.883-2.194 5.522-7.259 5.522-4.37 0-7.936-3.621-7.936-8.082s3.566-8.082 7.936-8.082c2.487 0 4.151 1.061 5.102 1.975l3.474-3.346c-2.231-2.085-5.12-3.346-8.576-3.346-7.077 0-12.8 5.723-12.8 12.8s5.723 12.8 12.8 12.8c7.387 0 12.288-5.193 12.288-12.507 0-0.841-0.091-1.481-0.201-2.121h-12.087z"></path>
<path fill="#444444" d="M45.257 14.171h-3.657v-3.657h-3.657v3.657h-3.657v3.657h3.657v3.657h3.657v-3.657h3.657z"></path>
</svg>
