<svg xmlns="http://www.w3.org/2000/svg" width="32" height="20" viewBox="0 0 32 20" class="icon"><path fill="#444" d="M20.215 8.836q-1.484-.781-3.066-.898-1.66-.137-2.598.615t-.938 2.197.938 2.197 2.598.615q1.543-.117 3.066-.898v1.738q-1.641.41-3.223.488-1.563.059-2.783-.137t-1.982-.576-1.26-.938-.693-1.172-.195-1.318q0-.898.332-1.631t1.084-1.357 2.158-.928 3.34-.225q.703.039 1.504.156t1.27.234l.449.098v1.738zM5.723 6.844h3.516v4.727q0 3.34-5.059 3.34-1.035 0-2.08-.127T.528 14.54l-.527-.137v-1.738q1.895.898 3.516.898 1.035 0 1.621-.547t.586-1.445V6.844zm23.457 3.808q1.035.098 1.689.615t.654 1.357q0 .605-.342 1.074t-.928.713-1.328.244h-7.578V6.842h7.422q.996.039 1.631.547t.635 1.367q0 .703-.488 1.221t-1.367.654v.02zm-4.59-.625h2.148q.195 0 .234-.02.352-.059.586-.322t.234-.654q0-.371-.234-.635t-.586-.322q-.078-.039-.234-.039H24.59v1.992zm2.363 3.36q.215 0 .254-.02.371-.059.605-.342t.234-.693q0-.273-.107-.498t-.293-.361-.439-.195l-.254-.02H24.59v2.129h2.363z"/></svg>