<svg xmlns="http://www.w3.org/2000/svg" width="36" height="20" viewBox="0 0 36 20" class="icon"><path fill="#444" d="M33.691 7.141h2.012l-1.66 7.5h-1.992zM5.332 7.16q.918 0 1.553.674t.381 1.865q-.234 1.152-1.064 1.807t-1.963.654H2.696l-.547 2.48H.001l1.641-7.48h3.691zm19.141 0q.918 0 1.563.674t.391 1.865q-.156.762-.596 1.328t-1.074.85-1.396.283h-1.523l-.527 2.48h-2.148l1.641-7.48h3.672zM8.027 9.055q.098-.02.42-.098t.537-.127.566-.098.684-.049q.547-.02 1.025.078t.879.313.566.645.029 1.016l-.82 3.906H9.94l.137-.586q-.41.41-1.035.586t-1.182.088-.889-.615-.176-1.387q.215-1.016 1.221-1.455t2.744-.439q.059-.293-.059-.469t-.352-.244-.625-.049q-.508.02-1.094.156t-.781.254zm19.18 0q.117-.02.342-.078t.42-.107.439-.088.508-.068.537-.029q.566-.02 1.045.078t.879.313.576.645.039 1.016l-.84 3.906H29.16l.137-.586q-.41.41-1.045.586t-1.201.088-.898-.615-.176-1.387q.137-.703.684-1.123t1.348-.596 1.973-.176q.098-.449-.166-.615t-.869-.146q-.352 0-.762.078t-.713.166-.459.166zM4.004 10.734q.273 0 .537-.137t.449-.371.244-.527q.117-.43-.098-.723t-.625-.293H3.476l-.469 2.051h.996zm19.16 0q.41 0 .781-.303t.469-.732-.127-.723-.615-.293h-1.094l-.43 2.051h1.016zm-9.531-1.933l.801 5.879-1.445 2.461h2.207l4.688-8.34h-2.031L15.9 12.278l-.313-3.477h-1.953zm-3.242 3.887q0-.195.098-.527h-.508q-.918 0-1.172.488-.195.352-.01.586t.537.234q.859-.039 1.055-.781zm19.199 0q.039-.332.117-.527h-.488q-.977 0-1.191.488-.195.352-.01.586t.537.234q.879-.039 1.035-.781z"/></svg>