<svg xmlns="http://www.w3.org/2000/svg" width="27" height="20" viewBox="0 0 27 20" class="icon"><path fill="#444" d="M19.16 8.465q-.781-.352-1.621-.332-.605 0-.928.225t-.322.508.283.508.947.557q1.855.84 1.836 2.285 0 1.328-1.035 2.119t-2.773.791q-1.445-.02-2.441-.449l.293-1.914.273.156q1.113.449 2.07.449.527 0 .918-.225t.41-.635q0-.273-.254-.498t-.918-.557q-.371-.195-.654-.371t-.596-.459-.488-.664-.176-.811q.02-1.23 1.064-2.002t2.666-.771q1.035 0 1.953.332l-.273 1.855zm-9.14-1.934l-3.457 8.477H4.258L2.461 8.25q.938.371 1.709 1.133t1.104 1.66Q4.063 7.703.001 6.688l.02-.156h3.535q.82 0 .996.684l.762 3.906.254 1.172 2.129-5.762h2.324zm3.085 0l-1.367 8.477H9.55l1.367-8.477h2.188zm13.946 8.477H25q-.156-.996-.234-1.27l-2.813-.02-.449 1.289H19.18l3.262-7.793q.293-.684 1.152-.684h1.68zM23.77 8.797l-.137.361q-.078.205-.127.342t-.029.117q-.703 1.875-.879 2.383h1.777l-.469-2.461z"/></svg>