<svg xmlns="http://www.w3.org/2000/svg" width="49" height="20" viewBox="0 0 49 20" class="icon"><path fill="#444" d="M6.816 3.875q1.875 0 3.467.908t2.52 2.48.928 3.428q0 1.875-.908 3.467t-2.48 2.529-3.428.938q-1.875 0-3.467-.908t-2.52-2.48T0 10.79t.908-3.467 2.48-2.52 3.428-.928zm.137 9.844q.957.254 1.66.029t.996-1.045q.43-1.23-.684-1.816.84-.195.977-1.113.176-1.152-1.504-1.738l.313-1.25-.762-.176-.293 1.191q-.117-.02-.322-.068t-.283-.068l.293-1.211-.742-.195-.313 1.23q-.176-.02-.488-.098v-.02l-1.035-.254-.195.801.547.137q.371.098.332.449L5.098 9.91l-.508 1.973q-.059.254-.332.195l-.547-.156-.391.879.996.234q.176.059.527.137l-.313 1.27.742.176.313-1.23q.488.137.605.156l-.313 1.23.762.195zm10.664-4.492q.176-.078.449-.156.234-.059.469-.059.547 0 .918.195.391.176.645.508.215.273.391.742.117.43.117.938 0 .781-.293 1.445-.254.664-.762 1.191-.469.488-1.152.801-.664.293-1.445.293-.02 0-.137-.01t-.215-.01q-.137 0-.566-.039-.43-.078-.684-.137-.41-.098-.684-.254l1.934-8.047 1.699-.254zm7.012-1.914q0 .195-.098.43-.078.176-.254.352-.137.156-.352.234-.176.098-.449.098-.352 0-.605-.195-.293-.195-.293-.645 0-.195.098-.43.078-.176.254-.352.156-.137.352-.234.234-.098.449-.098.313 0 .625.215.273.215.273.625zm17.207.917q-.273-.195-.273-.645 0-.254.098-.43.098-.195.234-.352.195-.156.371-.234.234-.098.43-.098.313 0 .625.215.273.215.273.625 0 .195-.098.43-.078.215-.234.352-.195.156-.371.234-.176.098-.43.098-.371 0-.625-.195zm-14.785.899h1.855l-.332 1.348h-1.836l-.488 2.051q-.078.352-.078.469-.02.215.059.391.059.176.234.254.156.078.488.078.176 0 .527-.039.156-.039.508-.156l.117 1.27q-.469.156-.723.215-.332.078-.918.078-.781 0-1.191-.215-.41-.234-.586-.625-.195-.352-.156-.898 0-.488.156-1.074l1.074-4.59 1.719-.273zM6.836 8.563q.039 0 .117.02.234.059.381.098t.41.137.4.205.234.303.039.43q-.039.176-.146.293t-.273.156-.303.059-.361-.01-.332-.049-.313-.078-.225-.059zm26.641 2.05q-.254-.098-.449-.156-.215-.078-.586-.078-.84 0-1.309.547-.469.586-.469 1.523 0 .566.234.918.254.352.898.352.332 0 .625-.059.43-.137.527-.176l.117 1.328q-.332.137-.664.215-.43.098-.918.098-.664 0-1.152-.215-.43-.156-.801-.527-.332-.391-.43-.801-.156-.469-.156-.938 0-.703.254-1.426.234-.664.703-1.172.41-.469 1.094-.781.645-.293 1.445-.293.449 0 .898.098.293.059.703.254zm5.527-.957q.273.313.43.762.137.41.137.957 0 .723-.195 1.328-.254.742-.625 1.211-.41.527-1.035.859-.625.352-1.426.352-.605 0-1.016-.195-.469-.195-.703-.488-.273-.313-.43-.762-.156-.469-.156-.977 0-.645.234-1.328.215-.664.625-1.191t1.035-.859q.605-.352 1.387-.352.566 0 1.016.176.41.156.723.508zm5.488-.254q.039-.02.098-.029t.107-.029.107-.039.098-.039l.508-.117q.293-.059.645-.117.234-.02.781-.02 1.348 0 1.797.742.488.762.176 2.07l-.762 3.145h-1.641l.723-3.086q.078-.41.098-.566.059-.254 0-.469-.02-.195-.195-.332-.215-.137-.508-.137-.215 0-.645.078l-1.074 4.512h-1.66zm-22.07-.273h1.66l-1.406 5.84h-1.621zm18.984 0h1.641l-1.387 5.84h-1.641zM5.098 9.91l.078.02q-.039 0-.078-.02zm11.445 3.809q.098 0 .117.02h.117q.039.02.117.02h.215q.391 0 .723-.195.332-.176.586-.508.234-.273.41-.703.137-.469.137-.84 0-.527-.176-.82-.176-.313-.664-.313-.156 0-.391.059t-.449.234zm21.309-1.446q.078-.332.078-.723 0-.547-.176-.879-.176-.293-.645-.293-.371 0-.645.215t-.449.527q-.215.332-.293.703-.098.43-.098.723 0 .566.176.879.195.293.645.293.371 0 .645-.215.293-.195.469-.518t.293-.713zM6.27 10.828q.039 0 .186.039t.234.059l.264.059.273.088.273.117.254.127.205.156.156.195.078.234-.029.273q-.039.195-.166.322t-.322.166-.361.059-.43-.02-.391-.059-.381-.088-.273-.068z"/></svg>