<svg xmlns="http://www.w3.org/2000/svg" width="20" height="20" viewBox="0 0 20 20" class="icon"><path fill="#444" d="M17.254.675q.668 0 1.143.483t.475 1.151v14.73q0 .668-.475 1.151t-1.143.483H2.629q-.668 0-1.151-.483t-.483-1.151V2.309q0-.668.483-1.151T2.629.675h14.625zM18.52 2.31q0-.527-.369-.905t-.896-.378H2.63q-.527 0-.905.378t-.378.905v14.73q0 .527.378.905t.905.378h14.625q.527 0 .896-.378t.369-.905V2.31zm-1.582 2.056q-.053-.176-.123-.246-.07-.018-.229 0-.193.053-.299.264-.123.193-.123.598 0 .334.123.475.105.158.299.07.123-.053.229-.176.088-.088.158-.352l.686-.105q-.018.264-.176.58-.141.316-.334.457-.246.211-.527.281-.387.105-.51.07-.246-.035-.352-.141-.158-.141-.246-.352-.07-.281-.07-.615 0-.422.105-.738.035-.141.211-.422.141-.246.246-.316.158-.158.563-.281.457-.158.721.018.246.158.352.58zm-1.846 1.67q0 .229.018.316 0 .105.088.246l-.721.211-.035-.141q-.035-.105-.035-.158-.158.264-.299.352-.176.176-.439.264-.369.088-.527-.053-.193-.229-.193-.527t.141-.545q.105-.211.475-.422.475-.299.527-.352.176-.088.281-.193 0-.176-.053-.264-.07-.07-.211-.018-.141.035-.281.176-.07.141-.105.281l-.703.105q.053-.281.123-.439.035-.141.193-.334.176-.141.299-.211l.387-.158q.387-.088.527-.088.193 0 .352.105.088.088.141.264.053.211.053.404v1.178zm-8.121 4.887q.053.07.211.255t.272.316.272.334.272.36.22.343.158.334.053.272v5.098H5.388q-.105-.264-.475-.729t-.369-.8v-4.729q-.158.07-.87.308t-.905.272q-.053 0-.167.009t-.22-.079-.105-.246V6.405q0-.334.369-.492 1.74-.703 3.832-1.371.211-.053.352.035t.141.316v6.029zm5.062-5.643q.088-.281.211-.457.07-.141.264-.193.141-.053.352.035l-.211.809q-.193-.035-.229-.018-.141.053-.229.246-.105.299-.105.914v.914l-.738.211V5.052l.686-.211v.439zM6.76 5.017q0-.07-.018-.132t-.088-.105-.176-.026l-2.32.809v6.328q.264-.088.387-.158v-1.318q0-.193.246-.396t.51-.202q.105 0 .22.026t.237.088.211.193.088.29v3.305h.123V11.1q.58-.158.58-.404V9.149l-.738.229V7.901q0-.264-.07-.369-.088-.088-.211-.035-.088.018-.211.193-.07.193-.07.545v1.301l-.738.229V7.076l.686-.229v.439q.211-.387.299-.475.141-.176.404-.229.299-.105.457.105.193.176.193.738V5.017zm1.318 2.724q0 .211.018.246.088.053.158.035.105-.035.211-.123l.053.703q-.299.158-.51.229-.299.088-.404.035-.123-.07-.176-.246-.088-.176-.088-.65v-.967l-.264.105v-.773l.264-.088v-.492l.738-.738v1.02l.422-.123v.756l-.422.123v.949zm2.865-.562q-.158.457-.404.721-.229.229-.668.369-.352.088-.615.035-.229-.123-.334-.369-.176-.299-.176-.756 0-.598.299-1.107.264-.439.809-.65.439-.123.65-.018.229.105.352.422.141.316.141.826v.123l-1.494.439q.035.281.088.334.141.176.299.088.123-.035.211-.141.053-.053.123-.193zm3.428-1.617q-.018.018-.141.105t-.193.123q-.246.193-.281.246-.053.105-.053.193 0 .158.053.211t.176.018q.088-.018.246-.141.105-.158.158-.264.035-.176.035-.334v-.158zm-11.127.351q-.035.018-.141.053t-.167.062-.149.062-.141.07-.105.079-.079.097-.026.123v5.748q0 .211.246.211.193 0 .563-.211V5.914zm6.979.598q0-.281-.105-.422-.088-.088-.246-.053-.141.053-.281.299-.07.141-.07.387zm-5.801 6.926q-.088.018-.378.114t-.36.097q-.264 0-.413-.202t-.149-.466q0-.229.211-.378t.633-.272.457-.141v1.248zm0 1.213q-.07.018-.246.088t-.299.105-.193.035q-.264 0-.387-.193t-.123-.369q0-.211.158-.352t.308-.185.448-.105.334-.062v1.037zm0 1.212q-.422.229-.598.229-.65 0-.65-.615 0-.088.044-.167t.114-.132.167-.097.193-.079.211-.062.202-.035.176-.026.141-.035v1.02z"/></svg>