<svg xmlns="http://www.w3.org/2000/svg" width="20" height="20" viewBox="0 0 20 20" class="icon"><path fill="#444" d="M.215 6.814l.899 1.203q1.249-.929 1.508-.929.99 0 1.843 3.153l.746 2.826q.517 1.958.807 3.009 1.127 3.153 2.833 3.153 2.712 0 6.581-5.21 3.793-4.951 3.93-7.83v-.335q0-3.504-2.803-3.595h-.213q-3.763 0-5.179 4.616.823-.35 1.432-.35 1.295 0 1.295 1.341 0 .168-.015.35-.091 1.082-1.28 2.955-1.219 1.965-1.813 1.965-.792 0-1.401-2.986-.183-.701-.777-4.524-.259-1.645-.96-2.437-.609-.686-1.523-.701-.122 0-.259.015-.96.091-2.849 1.752-.975.914-2.803 2.559z"/></svg>