<svg xmlns="http://www.w3.org/2000/svg" width="20" height="20" viewBox="0 0 20 20" class="icon"><path fill="#444" d="M17.543 6.2H2.1a1.032 1.032 0 0 1-1.029-1.029c0-.566.463-1.029 1.029-1.029h15.443c.566 0 1.029.463 1.029 1.029 0 .566-.463 1.029-1.029 1.029zM17.543 11.029H2.1A1.032 1.032 0 0 1 1.071 10c0-.566.463-1.029 1.029-1.029h15.443c.566 0 1.029.463 1.029 1.029 0 .566-.463 1.029-1.029 1.029zM17.543 15.857H2.1a1.032 1.032 0 0 1-1.029-1.029c0-.566.463-1.029 1.029-1.029h15.443c.566 0 1.029.463 1.029 1.029 0 .566-.463 1.029-1.029 1.029z"/></svg>