<svg  xmlns="http://www.w3.org/2000/svg" class="icon" width="289" height="150" viewBox="0 0 289 62"><g fill="#000" fill-rule="nonzero"><path d="M75.05 33.928c-1.85-.993-2.803-1.83-2.803-2.98 0-1.464 1.322-2.404 3.385-2.404 1.567.036 3.112.374 4.549.993l1.692-5.124s-1.557-1.202-6.135-1.202c-6.374 0-10.79 3.607-10.79 8.679 0 2.875 2.064 5.071 4.814 6.64 2.222 1.254 3.014 2.143 3.014 3.45 0 1.36-1.11 2.458-3.173 2.458a14.386 14.386 0 0 1-5.977-1.569l-1.8 5.124a13.893 13.893 0 0 0 7.193 1.78c6.558 0 11.265-3.19 11.265-8.941.003-3.087-2.377-5.283-5.233-6.904zM100.802 23.098a9.913 9.913 0 0 0-7.722 3.816l-.105-.052 2.803-14.483h-7.299l-7.088 36.86h7.299l2.433-12.6c.952-4.759 3.438-7.686 5.765-7.686 1.64 0 2.274 1.098 2.274 2.667 0 1.07-.107 2.139-.318 3.189l-2.75 14.43h7.299l2.856-14.9a26.66 26.66 0 0 0 .529-4.706c0-4.077-2.168-6.535-5.976-6.535zM123.38 23.21c-8.78 0-14.597 7.843-14.597 16.575 0 5.595 3.49 10.091 10.048 10.091 8.622 0 14.439-7.633 14.439-16.574 0-5.176-3.067-10.091-9.89-10.091zm-3.6 21.122c-2.486 0-3.544-2.089-3.544-4.705 0-4.131 2.169-10.876 6.135-10.876 2.591 0 3.438 2.196 3.438 4.34.004 4.447-2.165 11.243-6.025 11.243l-.004-.002zM151.894 23.21c-4.926 0-7.722 4.288-7.722 4.288h-.105l.423-3.868h-6.453c-.317 2.614-.899 6.588-1.481 9.568l-5.078 26.404h7.299l2.01-10.666h.156a8.588 8.588 0 0 0 4.284.941c8.568 0 14.174-8.68 14.174-17.464.003-4.862-2.166-9.202-7.507-9.202zm-6.981 21.228a4.667 4.667 0 0 1-3.015-1.045l1.216-6.745c.846-4.497 3.226-7.477 5.765-7.477 2.22 0 2.909 2.04 2.909 3.974-.001 4.653-2.803 11.294-6.875 11.294zM170.091 13.158a4.19 4.19 0 0 0-2.977 1.224 4.093 4.093 0 0 0-1.2 2.958c0 2.144 1.375 3.608 3.438 3.608h.105a4.147 4.147 0 0 0 3.06-1.172 4.05 4.05 0 0 0 1.224-3.01 3.41 3.41 0 0 0-1.012-2.609 3.492 3.492 0 0 0-2.638-1zM159.652 49.551h7.299l4.972-25.567h-7.351zM190.926 24.157h-5.078l.265-1.202c.423-2.458 1.904-4.654 4.337-4.654.79.002 1.575.125 2.327.366l1.428-5.648a9.734 9.734 0 0 0-3.967-.627 10.916 10.916 0 0 0-7.138 2.406c-2.486 2.089-3.65 5.124-4.23 8.156l-.212 1.202h-3.384l-1.058 5.438h3.385l-3.862 20.182h7.299l3.862-20.18h5.024l1.002-5.439zM207.869 23.984s-4.563 11.365-6.611 17.568h-.106c-.14-1.997-1.8-17.568-1.8-17.568h-7.67l4.393 23.478c.117.405.06.84-.157 1.202a12.396 12.396 0 0 1-3.967 4.34 15.86 15.86 0 0 1-4.125 2.039l2.01 6.118a16.724 16.724 0 0 0 7.14-3.922c3.332-3.085 6.399-7.843 9.572-14.327l8.939-18.927h-7.618z"/><g><path d="M35.217 59.977l18.067-3.88S46.77 12.548 46.73 12.249a.577.577 0 0 0-.525-.482c-.218-.018-4.835-.356-4.835-.356s-3.208-3.147-3.558-3.495a.774.774 0 0 0-.305-.18l-2.29 52.24zM36.218 7.023c-.07.013-.134.027-.181.04l-1.795.549c-1.071-3.047-2.961-5.847-6.286-5.847-.092 0-.187.004-.281.01A4.05 4.05 0 0 0 24.545 0c-7.749 0-11.448 9.574-12.609 14.438L6.516 16.1c-1.68.522-1.733.574-1.957 2.139C4.396 19.424 0 53.034 0 53.034l33.928 6.284 2.29-52.295zM27.42 9.366V9.7l-5.988 1.829c1.153-4.398 3.313-6.522 5.203-7.324.582 1.658.848 3.408.785 5.162zm-3.088-7.312c.358.007.705.123.994.331-2.483 1.155-5.143 4.064-6.268 9.872l-4.732 1.449c1.318-4.43 4.443-11.652 10.006-11.652zM25.67 27.95a10.626 10.626 0 0 0-4.461-1.059c-3.6 0-3.785 2.236-3.785 2.8 0 3.073 8.105 4.255 8.105 11.45 0 5.664-3.634 9.312-8.535 9.312a11.942 11.942 0 0 1-8.887-3.618l1.575-5.142s3.091 2.623 5.7 2.623a2.314 2.314 0 0 0 1.697-.638 2.26 2.26 0 0 0 .7-1.657c0-4.01-6.653-4.19-6.653-10.778 0-5.545 4.026-10.909 12.153-10.909a10.096 10.096 0 0 1 4.679.887l-2.288 6.729zm3.09-24.117c1.712.213 2.854 2.14 3.588 4.358l-2.895.887v-.62a13.902 13.902 0 0 0-.694-4.625z"/></g><g><path d="M219 61l5.087-27.561a178.392 178.392 0 0 0 1.43-8.9h2.173l-.794 5.232h.106C229.28 26.21 232.46 24 235.852 24c4.822 0 6.624 4.153 6.624 8.414 0 8.737-5.882 18.554-13.99 18.554a10.28 10.28 0 0 1-5.087-1.133h-.106l-2.014 11.163L219 61zm4.769-13.537a7.91 7.91 0 0 0 4.928 1.456c6.73 0 11.392-9.709 11.392-16.344 0-3.074-1.166-6.526-4.928-6.526-3.603 0-8.322 4.692-9.75 12.513l-1.642 8.9zM259.823 50.43c.06-2.33.272-4.655.636-6.958h-.103c-2.914 5.718-6.144 7.498-9.489 7.498-3.869 0-6.2-3.237-6.2-7.875 0-8.845 6.2-19.094 16.056-19.094a16.416 16.416 0 0 1 5.14.756l-2.702 13.916a56.835 56.835 0 0 0-1.112 11.757h-2.226zm3.391-24.001a9.016 9.016 0 0 0-3.073-.378c-7.31 0-13.035 8.306-13.088 16.45-.053 3.399.9 6.419 4.345 6.419 4.133 0 8.797-6.31 10.015-12.998l1.801-9.493zM272.167 24l2.544 15.642c.53 2.912.794 4.692 1.059 7.065h.107c.74-1.888 1.641-3.884 2.861-6.526L285.999 24h2.438l-9.487 20.663c-2.28 5.066-4.667 9.658-8.16 13.053a14.235 14.235 0 0 1-5.99 3.829l-.689-2.05a17.228 17.228 0 0 0 4.61-2.75 22.06 22.06 0 0 0 5.14-6.797 1.85 1.85 0 0 0 .159-1.294L269.835 24h2.332z"/></g></g></svg>