<svg xmlns="http://www.w3.org/2000/svg" width="20" height="20" viewBox="0 0 20 20" class="icon"><path fill="#444" d="M8.373 7.623v-.46H6.606V9.37h1.767v-.453h-1.24v-.44H8.34v-.453H7.133v-.4zm2.487.134c0-.247-.1-.393-.267-.487-.173-.1-.367-.107-.64-.107H8.74v2.213h.527v-.807h.567c.193 0 .307.02.387.093.093.107.087.3.087.433v.28h.533v-.433c0-.2-.013-.293-.087-.407a.629.629 0 0 0-.26-.187.638.638 0 0 0 .367-.593zm-.693.313c-.073.047-.16.047-.26.047h-.64v-.493h.653c.093 0 .187.007.253.04s.113.1.113.193c-.007.1-.047.173-.12.213zm-8.874.813h1.1l.2.493h1.073V7.643l.767 1.733H4.9l.767-1.733v1.733h.54V7.163h-.873l-.633 1.5-.693-1.5h-.86v2.093l-.9-2.093h-.787L.574 9.23v.14h.513l.207-.487zm.547-1.346l.36.88h-.72l.36-.88zm11.22.1h.5v-.473h-.513c-.367 0-.633.08-.8.26-.227.24-.287.533-.287.867 0 .4.093.653.28.847.147.2.413.273.767.247h.62l.2-.493h1.1l.207.493h1.073v-1.66l1 1.66h.747V7.172h-.54v1.54l-.927-1.54h-.807v2.093l-.893-2.093H14l-.747 1.74h-.24c-.14 0-.287-.027-.367-.113-.1-.113-.147-.28-.147-.52 0-.233.06-.407.153-.5.107-.113.213-.14.407-.14zm1.32-.1l.367.88h-.727l.36-.88zm-3.213-.374h.54v2.213h-.54V7.163zm1.96 4.4a.522.522 0 0 0-.273-.493c-.173-.093-.367-.107-.633-.107h-1.22v2.213h.533v-.807h.567c.193 0 .313.02.387.1.1.1.087.3.087.433v.273h.533v-.44c0-.193-.013-.293-.087-.407a.585.585 0 0 0-.26-.187.61.61 0 0 0 .367-.58zm-.694.314a.534.534 0 0 1-.26.047h-.64v-.493h.653c.093 0 .187 0 .253.04.067.033.107.107.107.2s-.047.167-.113.207zM9.86 10.97H8.173l-.673.727-.653-.727h-2.12v2.213H6.82l.673-.733.653.733h1.027v-.74h.66c.46 0 .92-.127.92-.74-.007-.62-.473-.733-.893-.733zm-3.313 1.747H5.254v-.44h1.16v-.453h-1.16v-.4h1.327l.58.647-.613.647zm2.1.26l-.813-.9.813-.873v1.773zm1.206-.987h-.68v-.56h.687c.193 0 .32.08.32.273 0 .187-.127.287-.327.287zm5.327-.567v-.453h-1.76v2.207h1.76v-.46h-1.233v-.44h1.207v-.453h-1.207v-.4zm4.127.647a.171.171 0 0 0-.047-.053c-.12-.12-.313-.173-.6-.18l-.287-.007a.623.623 0 0 1-.207-.027.169.169 0 0 1-.113-.167c0-.073.02-.12.08-.16.053-.033.12-.04.213-.04h.96v-.473h-1.053c-.553 0-.76.34-.76.66 0 .7.62.667 1.113.687.093 0 .147.013.187.047s.067.08.067.147c0 .06-.027.107-.06.147-.04.04-.113.053-.213.053h-1.013v.473h1.02c.34 0 .587-.093.72-.28a.724.724 0 0 0 .113-.413c-.007-.193-.047-.313-.12-.413zm-.774 1.54h-1.367v-.2c-.16.127-.447.2-.72.2h-4.313v-.713c0-.087-.007-.093-.093-.093h-.067v.807h-1.42v-.833c-.24.1-.507.113-.733.107h-.167v.733h-1.72l-.427-.48-.447.48H4.246v-3.087h2.847l.407.473.433-.473H9.84c.22 0 .58.02.747.18v-.18h1.707c.16 0 .507.033.713.18v-.18h2.58v.18c.127-.12.4-.18.633-.18h1.447v.18c.153-.107.367-.18.66-.18h.98V.258H.574v7.78l.573-1.313h1.38l.18.367v-.367H4.32l.353.793.347-.793h5.127c.233 0 .44.047.593.18v-.18h1.407v.18c.24-.133.54-.18.88-.18h2.033l.187.367v-.367h1.507l.207.367v-.367h1.467v3.08h-1.48l-.28-.467v.467h-1.853l-.2-.493h-.453l-.207.493h-.96c-.38 0-.66-.087-.847-.187v.187h-2.28v-.7c0-.1-.02-.107-.08-.107h-.087v.807H5.288v-.38l-.16.38h-.92l-.16-.38v.373H2.275l-.2-.493h-.453l-.207.493h-.84v9.313h18.727v-5.653c-.207.113-.487.153-.767.153zm-2.013-.907h-1.027v.473h1.027c.533 0 .827-.22.827-.7 0-.227-.053-.36-.16-.467-.12-.12-.313-.173-.607-.18l-.287-.007a.623.623 0 0 1-.207-.027.169.169 0 0 1-.113-.167c0-.073.02-.12.08-.16.053-.033.113-.04.213-.04h.967v-.473h-1.06c-.553 0-.753.34-.753.66 0 .7.62.667 1.113.687.093 0 .147.013.187.047.033.033.067.08.067.147 0 .06-.027.107-.06.147-.033.047-.107.06-.207.06z"/></svg>