<svg xmlns="http://www.w3.org/2000/svg" viewBox="-316 229 158 156"><style>.st0{fill:#222}</style><g id="TM3wMc.tif"><path class="st0" d="M-258.8 371.6c3-.8 5.7-2 8.2-3.7 7.5-5 12.2-11.9 14.4-20.5 1.2-4.7 1.8-9.4 1.7-14.3-.2-5.1-.1-10.2 0-15.4 0-2.4.1-2.5 2.4-2.5H-213.5c2-.1 2.3-.3 2.4-2.4.1-5.5.1-11 0-16.6 0-2.5-.2-2.8-2.8-2.8h-17.8c-2.9 0-3 0-2.8-2.9.3-6.1 2.9-10.8 8.7-13.3 2.5-1 5-1.9 7.8-1.8h.8c6.1-.4 6.1-.4 6.1-6.5v-21.1c1-.9 1.7-.5 2.5-.2 12.1 4.2 20.1 12.5 24.4 24.4 2.9 7.9 4.4 16.2 4.8 24.6.3 7.3.5 14.6 0 21.8-.7 10.3-2.8 20.3-7.8 29.5-5.1 9.3-12.6 15.8-22.4 19.8-8.5 3.4-17.4 5-26.6 4.8-6.6-.1-13.2 0-19.8-.1-1 .2-2 .6-2.8-.8zM-228.1 244.1c-.1.7-.7.6-1.2.7-8.4.3-14.9 4.2-21 9.6-5.8 5.2-8.1 11.7-9.2 19-.8 5.3-1.6 10.6-1.7 15.9 0 .4 0 .8-.1 1.2-.5 2.9-.5 2.9-3.5 2.9h-34.3c-.7 0-1.3.2-2.1-.4.6-7.7 1.6-15.3 4.3-22.8 4.3-12 12.5-19.5 24.6-23.2 5.7-1.7 11.4-2.4 17.2-3.1 8.7-1.1 17.4-.4 26.1-.5.4.1.8.2.9.7zM-277 368.7c-9.6-3.2-16.1-9.6-19.6-19-2.3-6.1-3.7-12.5-4.2-19.1-.3-4.4-.6-8.8-.8-13.2-.1-1.5.3-2.2 2-2.2 12 .1 23.9 0 35.9 0 1.5 0 2.1.4 2.1 2-.1 5.4-.1 10.8 0 16.1 0 1.6-.7 2.8-1.6 4-3 4.2-6.8 7-12 7.8-1.4.2-1.2 1.2-1.2 2.1v18.6c-.2.9.2 1.9-.6 2.9z"/></g></svg>
