<svg xmlns="http://www.w3.org/2000/svg" class="icon"  width="240" height="150" viewBox="0 0 240 150"><path d="M95.23 73.53a7.57 7.57 0 1 0 0 15.11 7.57 7.57 0 1 0 0-15.11zM183.65 73.53a7.57 7.57 0 1 0 0 15.11 7.57 7.57 0 1 0 0-15.11z"/><path d="M225 0H15A15 15 0 0 0 0 15v120a15 15 0 0 0 15 15h210a15 15 0 0 0 15-15V15a15 15 0 0 0-15-15zM37.33 95.17H28V53h9.33v42.17zm15.19 0L38.61 74.81A25 25 0 0 0 52.21 53h9.06a33.63 33.63 0 0 1-10 23.64l12.61 18.53H52.52zm23.79 0h-8.95V53h8.95v42.17zm34.09 0h-7.31v-1.95a14.86 14.86 0 1 1 0-24.25V67h7.31v28.16zm21.93-20h-.1c-3.3-1-8.11.93-8.11 5.21v14.79h-8.46V67H124v3.77a10.4 10.4 0 0 1 8.33-3.77v8.19zm32.88 20h-8.39V79.71c0-4.11-2.12-6.32-5.81-6.32-3.44 0-6.3 2.1-6.3 6.38v15.4h-8.46V67h8.36v3.17c2.12-2.88 5.3-3.93 8.65-3.93 6.76 0 11.95 4.46 11.95 11v17.9zm33.62 0h-7.31v-1.95a14.68 14.68 0 0 1-8.52 2.73 14.86 14.86 0 1 1 8.54-27V67h7.31v28.16zm8.91.6a5.29 5.29 0 1 1 5.26-5.3 5.28 5.28 0 0 1-5.27 5.29z"/></svg>
