<svg xmlns="http://www.w3.org/2000/svg" width="22" height="20" viewBox="0 0 22 20" class="icon"><path fill="#444" d="M2.09 5.281q-.41.039-.996.391-.508.313-.801.84T.02 7.645q.02 0 .02-.039h7.188q.684.059 1.309.254.684.195 1.201.82t.674 1.328q.02-.352.039-.752t.039-.889.039-.762h4.16q-.059.391-.098.879t-.078 1.006-.078.889q.723-.84 2.129-2.559.039-.039.117-.137t.117-.117h5.02q.02-.625-.293-1.162t-.859-.83q-.313-.195-.771-.254t-.869-.029-.879-.01H2.092zm19.785 2.364l.02.039.02-.039h-.039zm-.059.019h-.02q-.254.195-.518.449t-.439.42-.488.498-.41.43-.479.518-.42.459l-.039.039q.156.195.449.576t.459.615.439.576.488.605.469.566.508.557V7.663zM4.004 11.609q.195-.02.713.01t.85-.02.586-.244q.43-.371.41-.742-.078-.273-.273-.439t-.488-.215-.547-.059-.605 0-.508.01zm10.391-.918q-.117 1.582-.176 3.398-2.773-.02-4.102 0 .039-.332.195-2.734-.332.801-.547 1.113-.84 1.348-2.715 1.621H.019q0 .469.156.879.234.566.762.967t1.113.42h17.422q.605 0 1.016-.215.605-.254.986-.85t.342-1.24h-4.971l-.098-.02-.107-.068-.059-.127z"/></svg>