<svg xmlns="http://www.w3.org/2000/svg" width="23" height="20" viewBox="0 0 23 20" class="icon"><path fill="#444" d="M13.984 12.879q-.566 1.855-1.973 3.203 1.914 1.543 4.355 1.543 1.855 0 3.447-.918t2.51-2.51.918-3.447q0-1.387-.547-2.666t-1.465-2.197-2.197-1.465-2.666-.547q-2.441 0-4.355 1.543 1.406 1.348 1.973 3.203h-.547q-.527-1.602-1.816-2.852-1.289 1.23-1.797 2.852h-.566q.527-1.816 1.934-3.203-1.934-1.543-4.316-1.543-1.855 0-3.447.918t-2.51 2.51-.918 3.447.918 3.447 2.51 2.51 3.447.918q2.383 0 4.316-1.543-1.406-1.387-1.934-3.203h.566q.508 1.621 1.797 2.852 1.289-1.25 1.816-2.852h.547zm-6.777-4.18q-.039.273-.156.723-.938-.43-1.641 0-.625.488-.566 1.367.059.43.469.645.605.195 1.387-.156-.02.117-.059.283t-.068.293-.068.225q-.918.273-1.699.02-.391-.137-.674-.479t-.303-.732q-.078-.41.029-.82t.381-.752.664-.537q.957-.469 2.305-.078zm3.555 1.387q-.098-.02-.195.01t-.186.088-.156.137-.107.176q-.078.176-.137.42t-.098.42-.098.459-.078.42H8.672l.039-.195q.059-.293.273-1.24t.293-1.455h.879q0 .02-.059.449l.146-.146.225-.195.283-.107.459-.02-.293.82zm2.383.039l-.156-.039q-.352-.059-.625.41-.098.176-.166.42t-.098.42-.088.459-.078.42h-1.035l.059-.195q.059-.293.176-.85t.205-1.006.146-.84h.898q.02.176-.059.449l.156-.156.225-.195.293-.107.459-.01zm3.73 1.445q.469.117.898.117.547 0 .547-.254 0-.117-.078-.176t-.371-.176q-.762-.254-.762-.82 0-.215.078-.381t.254-.303.469-.215.703-.078q.625 0 .898.059l-.156.664q-.254-.02-.703-.02-.508 0-.508.215 0 .117.078.176t.391.156q.703.254.703.82 0 .977-1.543.977-.117 0-.547-.039-.215 0-.273-.02l-.176-.02h-.059zM8.633 9.324l-.586 2.891h-.996l.586-2.891h.996zm7.734 2.149l-.117.742h-.918l.078-.469q-.488.547-1.113.547-.43 0-.674-.283t-.244-.713q0-.02.078-.605l.273-1.348h.977l-.273 1.348q0 .039-.039.186t-.039.244q0 .137.127.244t.303.088q.605 0 .762-.781l.273-1.328h1.016z"/></svg>