<svg width="72" height="46" viewBox="0 0 72 46" xmlns="http://www.w3.org/2000/svg"><g fill="#231F20" fill-rule="evenodd"><path d="M66.1 45.96H5.69c-.207-.002-.414-.005-.62-.01-.45-.012-.906-.04-1.35-.118-.452-.082-.874-.214-1.284-.424-.404-.205-.774-.473-1.094-.794-.32-.32-.59-.69-.794-1.093-.21-.41-.34-.83-.423-1.283-.08-.445-.108-.9-.12-1.35-.005-.205-.008-.412-.01-.62V6.432v-.737c.002-.207.005-.413.01-.62.012-.45.04-.904.12-1.35C.21 3.27.342 2.85.55 2.44c.205-.405.474-.773.794-1.094.32-.32.69-.588 1.093-.793C2.85.343 3.27.21 3.72.13c.445-.08.9-.107 1.35-.12.207-.005.414-.007.62-.01H66.1c.206.003.413.005.62.01.45.013.904.04 1.35.12.45.08.872.213 1.283.423.404.205.772.473 1.093.793.32.32.588.69.794 1.093.21.41.342.83.422 1.283.08.446.107.9.12 1.35.005.207.007.413.01.62v34.575c-.003.207-.005.414-.01.62-.013.45-.04.904-.12 1.35-.08.452-.213.873-.422 1.283-.206.405-.475.774-.794 1.094-.32.32-.69.59-1.093.794-.41.21-.832.342-1.283.424-.446.08-.9.106-1.35.118-.207.005-.414.008-.62.01zM5.113 44.42c.19.004.39.006.586.007.243.002.48.002.72.002h58.943c.24 0 .483 0 .724-.003.202 0 .4-.003.598-.008.316-.01.734-.028 1.116-.097.323-.057.596-.147.857-.28.26-.132.497-.304.706-.512.206-.206.38-.443.512-.704.133-.26.222-.533.28-.857.066-.376.085-.778.095-1.123.005-.196.007-.39.008-.586.002-.245.002-.487.002-.73V6.43c0-.242 0-.484-.002-.725 0-.2-.003-.395-.008-.59-.01-.346-.03-.75-.095-1.12-.058-.327-.147-.6-.28-.86-.133-.26-.306-.498-.513-.706-.208-.208-.444-.38-.703-.512-.263-.133-.537-.222-.862-.28-.375-.068-.776-.087-1.12-.096-.198-.005-.394-.007-.59-.01H5.7c-.195.003-.39.005-.588.01-.344.01-.746.028-1.12.095-.326.06-.6.148-.86.28-.26.133-.498.305-.704.512-.208.207-.38.444-.512.703-.133.263-.222.535-.28.86-.07.377-.087.778-.096 1.12-.006.198-.008.394-.01.59V40.26c.002.194.004.39.01.587.01.343.027.744.095 1.118.06.328.148.6.28.86.133.263.305.5.512.705.207.21.443.38.702.512.264.134.536.224.862.282.38.068.798.086 1.12.095z"/><path d="M18.87 15.514c.61-.76 1.022-1.783.914-2.828-.89.045-1.978.588-2.608 1.35-.565.653-1.065 1.717-.935 2.718 1 .087 2-.5 2.63-1.24M13.747 30.33c1.106-.043 1.54-.715 2.883-.715s1.734.716 2.904.694c1.214-.023 1.973-1.085 2.71-2.17.845-1.235 1.19-2.428 1.213-2.494-.022-.022-2.34-.91-2.362-3.58-.022-2.232 1.82-3.295 1.907-3.36-1.04-1.54-2.666-1.712-3.23-1.756-1.452-.087-2.687.824-3.38.824-.694 0-1.757-.78-2.905-.76-1.495.022-2.883.868-3.64 2.212-1.562 2.69-.413 6.68 1.104 8.87.738 1.085 1.626 2.278 2.797 2.235M30.68 16.058h2.908c2.188 0 3.44 1.173 3.44 3.225s-1.252 3.235-3.45 3.235h-2.9v-6.46zm-2.526 14.138h2.525v-5.558h3.495c3.19 0 5.434-2.187 5.434-5.367 0-3.167-2.2-5.343-5.357-5.343h-6.1v16.27zM47.9 25.777c0 1.522-1.295 2.615-3.01 2.615-1.34 0-2.197-.642-2.197-1.635 0-1.025.823-1.612 2.4-1.713l2.808-.18v.913zm-2.41-5.547c1.543 0 2.41.72 2.41 2.04v.902l-3.144.192c-2.93.18-4.52 1.375-4.52 3.46 0 2.098 1.634 3.496 3.98 3.496 1.588 0 3.054-.8 3.72-2.075h.055v1.95h2.335v-8.094c0-2.344-1.883-3.854-4.77-3.854-2.682 0-4.666 1.533-4.734 3.64h2.28c.19-1.002 1.115-1.656 2.39-1.656zM55.57 30.23l-.224.72c-.383 1.22-1.015 1.693-2.13 1.693-.204 0-.587-.023-.745-.045v1.95c.17.045.79.068.98.068 2.46 0 3.62-.936 4.636-3.79l4.43-12.434h-2.57l-2.976 9.606h-.057l-2.977-9.606h-2.638L55.57 30.23z"/></g></svg>
