<?xml version="1.0" encoding="UTF-8"?>
<svg width="141px" height="62px" viewBox="0 0 141 62" version="1.1" xmlns="http://www.w3.org/2000/svg" xmlns:xlink="http://www.w3.org/1999/xlink">
    <!-- Generator: Sketch 51.2 (57519) - http://www.bohemiancoding.com/sketch -->
    <title>slate_logo</title>
    <desc>Created with Sketch.</desc>
    <defs></defs>
    <g id="Page-1" stroke="none" stroke-width="1" fill="none" fill-rule="evenodd">
        <g id="slate_logo">
            <path d="M115.9,24.7 L123.7,24.7 L123.7,27.2 L119.2,27.2 L119.2,29.9 L123.4,29.9 L123.4,32.3 L119.2,32.3 L119.2,35.1 L124,35.1 L124,37.6 L115.9,37.6 L115.9,24.7 Z M94.8,24.7 L103.7,24.7 L103.7,27.2 L100.9,27.2 L100.9,37.6 L97.6,37.6 L97.6,27.2 L94.8,27.2 L94.8,24.7 Z" id="Shape"></path>
            <path d="M20.1,37.8 C18.9,37.8 17.6,37.6 16.6,37.2 L16.8,34.5 C17.9,35 18.9,35.2 19.8,35.2 C20.8,35.2 21.5,34.8 21.5,34 C21.5,33.2 21,32.8 19.4,32.1 C17.3,31.1 16.4,30.2 16.4,28.3 C16.4,25.8 18.4,24.4 21.1,24.4 C22.3,24.4 23.3,24.6 24.2,24.8 L24,27.3 C23,26.9 22.3,26.7 21.5,26.7 C20.5,26.7 19.8,27.1 19.8,27.8 C19.8,28.5 20.2,28.8 21.8,29.5 C23.9,30.5 25,31.4 25,33.4 C25,36.3 23.1,37.8 20.1,37.8 Z M45.6,37.6 L38.3,37.6 L38.3,24.7 L41.7,24.7 L41.7,35.1 L45.7,35.1 L45.7,37.6 L45.6,37.6 Z" id="Shape"></path>
            <polygon id="Shape" fill="#FFFFFF" fill-rule="nonzero" points="56.6 54.7 47.6 49.5 37.7 49.5 5.4 49.5 5.4 13 37.7 13 47.6 13 56.6 7.8 58.2 6.8 58.2 0.9 46.2 7.8 5.4 7.8 0.2 7.8 0.2 13 0.2 49.5 0.2 54.7 5.4 54.7 46.2 54.7 58.2 61.6 58.2 55.6"></polygon>
            <polygon id="Shape" fill="#FFFFFF" fill-rule="nonzero" points="135 7.8 93.4 7.8 81.6 1 81.6 6.9 83 7.8 92 13 101.9 13 135 13 135 49.5 101.9 49.5 92 49.5 83 54.7 81.6 55.5 81.6 61.5 93.4 54.7 135 54.7 140.2 54.7 140.2 49.5 140.2 13 140.2 7.8"></polygon>
            <path d="M21.8,29.8 C20.2,29.1 19.8,28.7 19.8,28.1 C19.8,27.4 20.5,27 21.5,27 C22.3,27 23.1,27.1 24,27.6 L24.2,25.1 C23.4,24.8 22.3,24.7 21.1,24.7 C18.4,24.7 16.4,26.1 16.4,28.6 C16.4,30.5 17.3,31.4 19.4,32.4 C21,33.1 21.5,33.5 21.5,34.3 C21.5,35.1 20.9,35.5 19.8,35.5 C18.9,35.5 17.9,35.3 16.8,34.8 L16.6,37.5 C17.5,37.9 18.9,38.1 20.1,38.1 C23.1,38.1 25,36.6 25,33.9 C25,31.7 24,30.7 21.8,29.8 Z" id="Shape" fill="#FFFFFF" fill-rule="nonzero"></path>
            <polygon id="Shape" fill="#FFFFFF" fill-rule="nonzero" points="41.6 24.7 38.2 24.7 38.2 37.6 45.6 37.6 45.6 35.1 41.6 35.1"></polygon>
            <polygon id="Shape" fill="#FFFFFF" fill-rule="nonzero" points="97.6 37.6 100.9 37.6 100.9 27.2 103.7 27.3 103.7 24.7 94.8 24.7 94.8 27.3 97.6 27.2"></polygon>
            <polygon id="Shape" fill="#FFFFFF" fill-rule="nonzero" points="124 35.1 119.2 35.1 119.2 32.3 123.4 32.3 123.4 29.9 119.2 29.9 119.2 27.2 123.6 27.2 123.6 24.7 115.9 24.7 115.9 37.6 124 37.6"></polygon>
            <polygon id="Shape" fill="#FFFFFF" fill-rule="nonzero" points="58.2 42.7 58.2 42.7 58.2 19.7 58.2 19.7"></polygon>
            <path d="M61.5,44.6 L61.5,35.1 L69.8,30.3 L78.1,35.1 L78.1,44.6 L81.4,42.7 L81.4,19.7 L69.8,13 L58.2,19.7 L58.2,42.8 L61.5,44.6 Z M78.2,31.3 L73.2,28.4 L78.2,25.5 L78.2,31.3 Z M61.5,21.6 L69.8,16.8 L78.1,21.6 L69.8,26.4 L61.5,21.6 Z M61.5,25.5 L66.5,28.4 L61.5,31.3 L61.5,25.5 Z" id="Shape" fill="#FFFFFF" fill-rule="nonzero"></path>
        </g>
    </g>
</svg>